<svg width="40" height="40" viewBox="0 0 40 40" fill="none" xmlns="http://www.w3.org/2000/svg">
<path fill-rule="evenodd" clip-rule="evenodd" d="M5 8C3.34315 8 2 9.34314 2 11V29C2 30.6569 3.34315 32 5 32H34C35.6569 32 37 30.6569 37 29V11C37 9.34315 35.6569 8 34 8H5ZM4 11C4 10.4477 4.44771 10 5 10H34C34.5523 10 35 10.4477 35 11V29C35 29.5523 34.5523 30 34 30H5C4.44772 30 4 29.5523 4 29V11ZM18 14C17.4477 14 17 14.4477 17 15C17 15.5523 17.4477 16 18 16H28C28.5523 16 29 15.5523 29 15C29 14.4477 28.5523 14 28 14H18ZM17 19C17 18.4477 17.4477 18 18 18H24C24.5523 18 25 18.4477 25 19C25 19.5523 24.5523 20 24 20H18C17.4477 20 17 19.5523 17 19ZM13 17C13 18.1046 12.1046 19 11 19C9.89543 19 9 18.1046 9 17C9 15.8954 9.89543 15 11 15C12.1046 15 13 15.8954 13 17ZM15 17C15 19.2091 13.2091 21 11 21C8.79086 21 7 19.2091 7 17C7 14.7909 8.79086 13 11 13C13.2091 13 15 14.7909 15 17Z" fill="#1D1D1D"/>
</svg>
