<svg width="40" height="40" viewBox="0 0 40 40" fill="none" xmlns="http://www.w3.org/2000/svg">
<path fill-rule="evenodd" clip-rule="evenodd" d="M20 12C20 9.23858 22.2386 7 25 7C27.7614 7 30 9.23858 30 12C30 14.7614 27.7614 17 25 17C22.2386 17 20 14.7614 20 12ZM25 5C21.134 5 18 8.13401 18 12C18 15.866 21.134 19 25 19C28.866 19 32 15.866 32 12C32 8.13401 28.866 5 25 5ZM11.709 10.9583C10.0521 10.9583 8.70898 12.3015 8.70898 13.9583C8.70898 15.6152 10.0521 16.9583 11.709 16.9583C13.3658 16.9583 14.709 15.6152 14.709 13.9583C14.709 12.3015 13.3658 10.9583 11.709 10.9583ZM6.70898 13.9583C6.70898 11.1969 8.94756 8.95831 11.709 8.95831C14.4704 8.95831 16.709 11.1969 16.709 13.9583C16.709 16.7197 14.4704 18.9583 11.709 18.9583C8.94756 18.9583 6.70898 16.7197 6.70898 13.9583ZM14 26.2637C14 23.4929 16.252 20.9583 18.9724 20.9583C19.5246 20.9583 19.9724 20.5106 19.9724 19.9583C19.9724 19.406 19.5246 18.9583 18.9724 18.9583C14.9876 18.9583 12 22.5553 12 26.2637L12 32.2357C12 33.7692 13.2737 34.9583 14.7778 34.9583H35.2222C36.7265 34.9583 38 33.7687 38 32.2354V26.2637C38 24.3414 37.1204 22.5273 35.8565 21.2051C34.5965 19.8872 32.8568 18.9583 31.0277 18.9583C30.4754 18.9583 30.0277 19.406 30.0277 19.9583C30.0277 20.5106 30.4754 20.9583 31.0277 20.9583C32.1846 20.9583 33.4311 21.5623 34.4108 22.5872C35.3865 23.6079 36 24.9464 36 26.2637V32.2354C36 32.6054 35.6816 32.9583 35.2222 32.9583H14.7778C14.3182 32.9583 14 32.6055 14 32.2357L14 26.2637ZM4 24C4 22.4686 5.13241 21 7 21C7.55228 21 8 20.5523 8 20C8 19.4477 7.55228 19 7 19C3.86759 19 2 21.5314 2 24V28C2 28.8252 2.40255 29.5668 2.91789 30.0821C3.43324 30.5975 4.17477 31 5 31H9C9.55228 31 10 30.5523 10 30C10 29.4477 9.55228 29 9 29H5C4.82523 29 4.56676 28.9025 4.33211 28.6679C4.09745 28.4332 4 28.1748 4 28V24Z" fill="#1D1D1D"/>
</svg>
