<svg width="40" height="40" viewBox="0 0 40 40" fill="none" xmlns="http://www.w3.org/2000/svg">
<path fill-rule="evenodd" clip-rule="evenodd" d="M5.00001 8.70492C5.00001 8.30405 5.31783 8 5.68422 8H34.3158C34.6822 8 35 8.30405 35 8.70492V11.346L20.4008 17.7331C20.1453 17.8449 19.8547 17.8449 19.5992 17.7331L5.00001 11.346V8.70492ZM3.00001 11.9771C2.99967 11.992 2.99967 12.007 3.00001 12.0219V31.2951C3.00001 32.7774 4.19029 34 5.68422 34H34.3158C35.8097 34 37 32.7774 37 31.2951V12.0219C37.0003 12.007 37.0003 11.992 37 11.9771V8.70492C37 7.22259 35.8097 6 34.3158 6H5.68422C4.19028 6 3.00001 7.22259 3.00001 8.70492V11.9771ZM35 13.529V31.2951C35 31.696 34.6822 32 34.3158 32H5.68422C5.31783 32 5.00001 31.696 5.00001 31.2951V13.529L18.7976 19.5654C19.5641 19.9008 20.4359 19.9008 21.2025 19.5654L35 13.529ZM7.95899 28C7.95899 27.4477 8.40671 27 8.95899 27H17C17.5523 27 18 27.4477 18 28C18 28.5523 17.5523 29 17 29H8.95899C8.40671 29 7.95899 28.5523 7.95899 28ZM20 27C19.4477 27 19 27.4477 19 28C19 28.5523 19.4477 29 20 29H31C31.5523 29 32 28.5523 32 28C32 27.4477 31.5523 27 31 27H20ZM8.2929 20.2929C8.68343 19.9024 9.31659 19.9024 9.70712 20.2929L10.5 21.0858L11.2929 20.2929C11.6834 19.9024 12.3166 19.9024 12.7071 20.2929C13.0976 20.6834 13.0976 21.3166 12.7071 21.7071L11.9142 22.5L12.7071 23.2929C13.0976 23.6834 13.0976 24.3166 12.7071 24.7071C12.3166 25.0976 11.6834 25.0976 11.2929 24.7071L10.5 23.9142L9.70712 24.7071C9.31659 25.0976 8.68343 25.0976 8.2929 24.7071C7.90238 24.3166 7.90238 23.6834 8.2929 23.2929L9.08579 22.5L8.2929 21.7071C7.90238 21.3166 7.90238 20.6834 8.2929 20.2929Z" fill="#1D1D1D"/>
</svg>
