<svg width="40" height="40" viewBox="0 0 40 40" fill="none" xmlns="http://www.w3.org/2000/svg">
<path fill-rule="evenodd" clip-rule="evenodd" d="M7 4C5.34315 4 4 5.34315 4 7V23C4 24.6569 5.34315 26 7 26H17.2615L7.35559 34.3478C6.93327 34.7037 6.87942 35.3346 7.23532 35.7569C7.59121 36.1792 8.22208 36.2331 8.64441 35.8772L20 26.3077L31.3556 35.8772C31.7779 36.2331 32.4088 36.1792 32.7647 35.7569C33.1206 35.3346 33.0667 34.7037 32.6444 34.3478L22.7385 26H23H27H33C34.6569 26 36 24.6569 36 23V7C36 5.34315 34.6569 4 33 4H17H13H7ZM29 24H33C33.5523 24 34 23.5523 34 23V7C34 6.44772 33.5523 6 33 6H19V10C19 11.1046 18.1046 12 17 12H13C11.8954 12 11 11.1046 11 10V6H7C6.44772 6 6 6.44772 6 7V23C6 23.5523 6.44772 24 7 24H21V21C21 19.8954 21.8954 19 23 19H27C28.1046 19 29 19.8954 29 21V24ZM23 24H27V21H23V24ZM13 6H17V10H13V6ZM23 8C21.8954 8 21 8.89543 21 10V15C21 16.1046 21.8954 17 23 17H27C28.1046 17 29 16.1046 29 15V10C29 8.89543 28.1046 8 27 8H23ZM23 10H27V15H23V10ZM11 16C11 14.8954 11.8954 14 13 14H17C18.1046 14 19 14.8954 19 16V20C19 21.1046 18.1046 22 17 22H13C11.8954 22 11 21.1046 11 20V16ZM17 16H13V20H17V16Z" fill="#1D1D1D"/>
</svg>
