<svg width="40" height="40" viewBox="0 0 40 40" fill="none" xmlns="http://www.w3.org/2000/svg">
<path fill-rule="evenodd" clip-rule="evenodd" d="M19.6029 10.0104C19.8559 9.90119 20.1428 9.90118 20.3958 10.0104L35.8102 16.6667L20.3958 23.3229C20.1428 23.4321 19.8559 23.4321 19.6029 23.3229L4.18848 16.6667L19.6029 10.0104ZM21.1886 8.17431C20.4296 7.84656 19.569 7.84656 18.81 8.17431L3.39561 14.8305C1.7861 15.5255 1.7861 17.8078 3.3956 18.5028L9.07616 20.9558V25.0065C9.07616 26.1486 9.72461 27.1916 10.7488 27.6969L18.672 31.606C19.5088 32.0188 20.49 32.0188 21.3267 31.606L29.2499 27.6969C30.2741 27.1916 30.9226 26.1486 30.9226 25.0065V20.9557L34 19.6268V23.6944L33 24.3889V25.6111L35 27L37 25.6111V24.3889L36 23.6945V18.7632L36.6031 18.5028C38.2126 17.8078 38.2126 15.5256 36.6031 14.8305L21.1886 8.17431ZM28.9226 21.8194L21.1886 25.159C20.4296 25.4868 19.569 25.4868 18.81 25.159L11.0762 21.8194V25.0065C11.0762 25.3872 11.2923 25.7349 11.6337 25.9033L19.5569 29.8124C19.8358 29.95 20.1629 29.95 20.4418 29.8124L28.365 25.9033C28.7064 25.7349 28.9226 25.3872 28.9226 25.0065V21.8194Z" fill="#1D1D1D"/>
</svg>
