<svg width="40" height="40" viewBox="0 0 40 40" fill="none" xmlns="http://www.w3.org/2000/svg">
<path fill-rule="evenodd" clip-rule="evenodd" d="M4 7C4 5.34315 5.34315 4 7 4H33C34.6569 4 36 5.34315 36 7V23C36 24.6569 34.6569 26 33 26H22.1164L32.599 34.3296C33.0314 34.6732 33.1034 35.3022 32.7599 35.7346C32.4163 36.167 31.7872 36.239 31.3548 35.8954L20.0027 26.8749L8.75038 35.8928C8.31941 36.2382 7.69006 36.1688 7.34468 35.7379C6.99929 35.3069 7.06866 34.6776 7.49962 34.3322L17.8963 26H7C5.34315 26 4 24.6569 4 23V7ZM7 6C6.44772 6 6 6.44772 6 7V23C6 23.5523 6.44772 24 7 24H33C33.5523 24 34 23.5523 34 23V7C34 6.44772 33.5523 6 33 6H7ZM30.2911 9.08458C30.6816 9.4751 30.6816 10.1083 30.2911 10.4988L23.7807 17.0092C22.0957 18.6942 19.3639 18.6942 17.679 17.0092C16.7751 16.1053 15.3096 16.1053 14.4057 17.0092L10.9161 20.4988C10.5256 20.8893 9.8924 20.8893 9.50188 20.4988C9.11135 20.1083 9.11135 19.4751 9.50188 19.0846L12.9915 15.595C14.6764 13.9101 17.4082 13.9101 19.0932 15.595C19.9971 16.4989 21.4626 16.4989 22.3665 15.595L28.8769 9.08458C29.2674 8.69406 29.9006 8.69406 30.2911 9.08458Z" fill="#1D1D1D"/>
</svg>
