<svg width="24" height="24" viewBox="0 0 24 24" fill="none" xmlns="http://www.w3.org/2000/svg">
<path d="M14.1388 16.5714H6.68661L5.52078 19.383C5.36592 19.7565 5.00137 20 4.59705 20H3.00114C2.27651 20 1.79245 19.2533 2.08824 18.5918L8.34811 4.59181C8.50909 4.23179 8.86663 4 9.26101 4H11.6341C12.028 4 12.3853 4.23129 12.5465 4.59072L18.8264 18.5907C19.1232 19.2523 18.6392 20 17.914 20H16.2284C15.8241 20 15.4595 19.7565 15.3047 19.383L14.1388 16.5714ZM12.9694 13.76L10.4242 7.63429L7.87897 13.76H12.9694Z" fill="black"/>
<path d="M20 3C20 2.44771 20.4477 2 21 2C21.5523 2 22 2.44772 22 3V20C22 20.5523 21.5523 21 21 21C20.4477 21 20 20.5523 20 20V3Z" fill="black"/>
</svg>
