<svg width="24" height="24" viewBox="0 0 24 24" fill="none" xmlns="http://www.w3.org/2000/svg">
<path fill-rule="evenodd" clip-rule="evenodd" d="M20 6.66667V4H17.3333V5.6C17.3333 6.18667 16.8533 6.66667 16.2667 6.66667H7.73333C7.14667 6.66667 6.66667 6.18667 6.66667 5.6V4H4V6.66667C4 6.93867 4.04267 7.20533 4.11733 7.456V7.46133C4.45867 8.544 5.472 9.33333 6.66667 9.33333H17.3333C18.528 9.33333 19.5413 8.544 19.8827 7.46133V7.456C19.9573 7.20533 20 6.93867 20 6.66667ZM18.464 14.6667L20 12H15.5893L14.048 14.6667L12.512 17.3333H11.488V17.328L9.952 14.6667L8.41067 12H4L5.54133 14.6667H6.87467L9.664 20H14.336L17.2213 14.6667H18.464Z" fill="black"/>
</svg>
