<svg width="24" height="24" viewBox="0 0 24 24" fill="none" xmlns="http://www.w3.org/2000/svg">
<path fill-rule="evenodd" clip-rule="evenodd" d="M12 22C17.5228 22 22 17.5228 22 12C22 6.47715 17.5228 2 12 2C6.47715 2 2 6.47715 2 12C2 17.5228 6.47715 22 12 22Z" fill="black"/>
<path d="M15.2049 14.416V16H8.85694V14.74L12.0969 11.68C12.4409 11.352 12.6729 11.072 12.7929 10.84C12.9129 10.6 12.9729 10.364 12.9729 10.132C12.9729 9.796 12.8569 9.54 12.6249 9.364C12.4009 9.18 12.0689 9.088 11.6289 9.088C11.2609 9.088 10.9289 9.16 10.6329 9.304C10.3369 9.44 10.0889 9.648 9.88894 9.928L8.47294 9.016C8.80094 8.528 9.25294 8.148 9.82894 7.876C10.4049 7.596 11.0649 7.456 11.8089 7.456C12.4329 7.456 12.9769 7.56 13.4409 7.768C13.9129 7.968 14.2769 8.256 14.5329 8.632C14.7969 9 14.9289 9.436 14.9289 9.94C14.9289 10.396 14.8329 10.824 14.6409 11.224C14.4489 11.624 14.0769 12.08 13.5249 12.592L11.5929 14.416H15.2049Z" fill="white"/>
</svg>
