<svg width="24" height="24" viewBox="0 0 24 24" fill="none" xmlns="http://www.w3.org/2000/svg">
<path fill-rule="evenodd" clip-rule="evenodd" d="M7 5.5C7 4.11929 8.11929 3 9.5 3H14.5C15.8807 3 17 4.11929 17 5.5C17 5.67123 16.9828 5.83844 16.95 6H19C20.6569 6 22 7.34315 22 9V17C22 18.6569 20.6569 20 19 20H5C3.34315 20 2 18.6569 2 17V9C2 7.34315 3.34315 6 5 6H7.05001C7.01722 5.83844 7 5.67123 7 5.5ZM15 5.5C15 5.77614 14.7761 6 14.5 6H9.5C9.22386 6 9 5.77614 9 5.5C9 5.22386 9.22386 5 9.5 5H14.5C14.7761 5 15 5.22386 15 5.5ZM5 8H9.5H14.5H19C19.5523 8 20 8.44772 20 9V17C20 17.5523 19.5523 18 19 18H5C4.44772 18 4 17.5523 4 17V9C4 8.44772 4.44772 8 5 8ZM10 13C10 11.8954 10.8954 11 12 11C13.1046 11 14 11.8954 14 13C14 14.1046 13.1046 15 12 15C10.8954 15 10 14.1046 10 13ZM12 9C9.79086 9 8 10.7909 8 13C8 15.2091 9.79086 17 12 17C14.2091 17 16 15.2091 16 13C16 10.7909 14.2091 9 12 9Z" fill="black"/>
</svg>
