<svg width="24" height="25" viewBox="0 0 24 25" fill="none" xmlns="http://www.w3.org/2000/svg">
<g clip-path="url(#clip0)">
<path fill-rule="evenodd" clip-rule="evenodd" d="M12 0.2771C12.5522 0.2771 13 0.728169 13 1.28459V3.29957C13 3.85599 12.5522 4.30706 12 4.30706C11.4477 4.30706 11 3.85599 11 3.29957V1.28459C11 0.728169 11.4477 0.2771 12 0.2771ZM12 8.33703C9.79086 8.33703 8 10.1413 8 12.367C8 14.5927 9.79086 16.397 12 16.397C14.2091 16.397 16 14.5927 16 12.367C16 10.1413 14.2091 8.33703 12 8.33703ZM6 12.367C6 9.02846 8.68629 6.32204 12 6.32204C15.3137 6.32204 18 9.02846 18 12.367C18 15.7055 15.3137 18.4119 12 18.4119C8.68629 18.4119 6 15.7055 6 12.367ZM13 21.4344C13 20.8779 12.5522 20.4269 12 20.4269C11.4477 20.4269 11 20.8779 11 21.4344V23.4493C11 24.0058 11.4477 24.4568 12 24.4568C12.5522 24.4568 13 24.0058 13 23.4493V21.4344ZM3.51262 3.81633C3.90314 3.42288 4.53631 3.42288 4.92683 3.81633L6.34683 5.24696C6.73736 5.64041 6.73736 6.27832 6.34683 6.67177C5.95631 7.06522 5.32314 7.06522 4.93262 6.67177L3.51262 5.24113C3.1221 4.84768 3.1221 4.20978 3.51262 3.81633ZM19.0674 18.0622C18.6769 17.6688 18.0437 17.6688 17.6532 18.0622C17.2627 18.4557 17.2627 19.0936 17.6532 19.487L19.0732 20.9177C19.4637 21.3111 20.0969 21.3111 20.4874 20.9177C20.8779 20.5242 20.8779 19.8863 20.4874 19.4929L19.0674 18.0622ZM0 12.3669C0 11.8105 0.447715 11.3594 1 11.3594H3C3.55228 11.3594 4 11.8105 4 12.3669C4 12.9234 3.55228 13.3744 3 13.3744H1C0.447715 13.3744 0 12.9234 0 12.3669ZM21 11.3594C20.4477 11.3594 20 11.8105 20 12.3669C20 12.9234 20.4477 13.3744 21 13.3744H22.9999C23.5522 13.3744 23.9999 12.9234 23.9999 12.3669C23.9999 11.8105 23.5522 11.3594 22.9999 11.3594H21ZM6.34683 18.0622C6.73736 18.4557 6.73736 19.0936 6.34683 19.487L4.92683 20.9177C4.53631 21.3111 3.90314 21.3111 3.51262 20.9177C3.1221 20.5242 3.1221 19.8863 3.51262 19.4929L4.93262 18.0622C5.32314 17.6688 5.95631 17.6688 6.34683 18.0622ZM20.4874 5.24113C20.8779 4.84768 20.8779 4.20978 20.4874 3.81633C20.0969 3.42288 19.4637 3.42288 19.0732 3.81633L17.6532 5.24696C17.2627 5.64041 17.2627 6.27832 17.6532 6.67177C18.0437 7.06522 18.6769 7.06522 19.0674 6.67177L20.4874 5.24113Z" fill="black"/>
</g>
<defs>
<clipPath id="clip0">
<path d="M0 0.2771H24V24.4569H0V0.2771Z" fill="white"/>
</clipPath>
</defs>
</svg>
