<svg width="24" height="24" viewBox="0 0 24 24" fill="none" xmlns="http://www.w3.org/2000/svg">
<path fill-rule="evenodd" clip-rule="evenodd" d="M22 6C22 8.20914 20.2091 10 18 10C16.7961 10 15.7164 9.46815 14.9831 8.6266L9.9121 11.1621C9.96969 11.4323 10 11.7126 10 12C10 12.2874 9.96968 12.5678 9.91207 12.838L14.983 15.3735C15.7163 14.5319 16.7961 14 18 14C20.2091 14 22 15.7909 22 18C22 20.2091 20.2091 22 18 22C15.7909 22 14 20.2091 14 18C14 17.7126 14.0303 17.4323 14.0879 17.162L9.01692 14.6265C8.28361 15.4681 7.20392 16 6 16C3.79086 16 2 14.2091 2 12C2 9.79086 3.79086 8 6 8C7.20397 8 8.28371 8.53193 9.01702 9.37359L14.0879 6.83812C14.0303 6.56785 14 6.28747 14 6C14 3.79086 15.7909 2 18 2C20.2091 2 22 3.79086 22 6ZM18 8C19.1046 8 20 7.10457 20 6C20 4.89543 19.1046 4 18 4C16.8954 4 16 4.89543 16 6C16 7.10457 16.8954 8 18 8ZM8 12C8 13.1046 7.10457 14 6 14C4.89543 14 4 13.1046 4 12C4 10.8954 4.89543 10 6 10C7.10457 10 8 10.8954 8 12ZM18 20C19.1046 20 20 19.1046 20 18C20 16.8954 19.1046 16 18 16C16.8954 16 16 16.8954 16 18C16 19.1046 16.8954 20 18 20Z" fill="black"/>
</svg>
