<svg width="24" height="24" viewBox="0 0 24 24" fill="none" xmlns="http://www.w3.org/2000/svg">
<path d="M1 15.8453C1 16.1138 1.09897 16.3167 1.29688 16.4543C1.49481 16.5918 1.70637 16.6405 1.93159 16.6002C2.14316 16.56 2.2916 16.4861 2.37694 16.3788C2.46224 16.2714 2.5049 16.0936 2.5049 15.8453V12.9265C2.5049 12.7185 2.43154 12.5424 2.2848 12.3981C2.13808 12.2539 1.95893 12.1817 1.74734 12.1817C1.5426 12.1817 1.36686 12.2539 1.22012 12.3981C1.07338 12.5424 1 12.7185 1 12.9265V15.8453ZM3.35458 17.0934C3.35458 17.288 3.42454 17.4339 3.56444 17.5312C3.70437 17.6285 3.88352 17.6772 4.1019 17.6772C4.32712 17.6772 4.50967 17.6285 4.6496 17.5312C4.7895 17.434 4.85946 17.288 4.85946 17.0934V10.2895C4.85946 10.0882 4.78608 9.91544 4.63936 9.77119C4.49262 9.62694 4.31347 9.5548 4.1019 9.5548C3.89716 9.5548 3.7214 9.62694 3.57468 9.77119C3.42794 9.91546 3.35458 10.0882 3.35458 10.2895V17.0934ZM5.69892 17.4155C5.69892 17.6101 5.77058 17.756 5.91391 17.8533C6.05723 17.9506 6.2415 17.9993 6.46674 17.9993C6.68512 17.9993 6.86428 17.9506 7.00418 17.8533C7.1441 17.756 7.21406 17.6101 7.21406 17.4155V11.2054C7.21406 10.9974 7.14068 10.8196 6.99396 10.672C6.84722 10.5244 6.67149 10.4506 6.46674 10.4506C6.25516 10.4506 6.0743 10.5244 5.92416 10.672C5.77402 10.8196 5.69894 10.9974 5.69894 11.2054V17.4155H5.69892ZM8.0535 17.4457C8.0535 17.8147 8.30602 17.9993 8.81106 17.9993C9.31609 17.9993 9.5686 17.8147 9.5686 17.4457V7.38078C9.5686 6.81715 9.39457 6.49843 9.0465 6.42462C8.82128 6.37093 8.59946 6.43468 8.38107 6.61585C8.16267 6.79702 8.05348 7.05198 8.05348 7.38078V17.4457H8.0535ZM10.4491 17.7375V6.78695C10.4491 6.43804 10.5548 6.23004 10.7664 6.16293C11.2237 6.05558 11.6775 6.00189 12.128 6.00189C13.1722 6.00189 14.1447 6.24345 15.0456 6.72656C15.9465 7.20968 16.675 7.86893 17.2312 8.70431C17.7875 9.53972 18.11 10.4606 18.1987 11.4671C18.615 11.2927 19.0586 11.2055 19.5295 11.2055C20.485 11.2055 21.3023 11.5376 21.9813 12.2019C22.6604 12.8662 23 13.6647 23 14.5973C23 15.5367 22.6604 16.3386 21.9813 17.0029C21.3023 17.6671 20.4884 17.9993 19.5397 17.9993L10.6333 17.9892C10.5718 17.9691 10.5258 17.9322 10.4951 17.8785C10.4643 17.8248 10.4491 17.7778 10.4491 17.7375Z" fill="black"/>
</svg>
