<svg width="24" height="24" viewBox="0 0 24 24" fill="none" xmlns="http://www.w3.org/2000/svg">
<path fill-rule="evenodd" clip-rule="evenodd" d="M6 1C4.34315 1 3 2.34315 3 4V12V13V15V16V17C3 19.7614 5.23858 22 8 22H16C18.7614 22 21 19.7614 21 17V13V12V6C21 4.34315 19.6569 3 18 3C16.3431 3 15 4.34314 15 6V6.17071C14.6872 6.06015 14.3506 6 14 6C13.2316 6 12.5308 6.28885 12 6.7639C11.4692 6.28885 10.7684 6 10 6C9.64936 6 9.31278 6.06015 9 6.17071V4C9 2.34315 7.65685 1 6 1ZM19 12V6C19 5.44772 18.5523 5 18 5C17.4477 5 17 5.44771 17 6V9V9.72727V10C17 11.6569 15.6569 13 14 13C13.2316 13 12.5308 12.7111 12 12.2361C11.88 12.3435 11.7512 12.4414 11.615 12.5286C11.8601 12.9634 12 13.4653 12 14C12 15.6569 10.6569 17 9 17H8.5C7.94772 17 7.5 16.5523 7.5 16C7.5 15.4477 7.94772 15 8.5 15H9C9.55228 15 10 14.5523 10 14C10 13.4477 9.55228 13 9 13H7C5.89543 13 5 13.8954 5 15V16V17C5 18.6569 6.34315 20 8 20H16C17.6569 20 19 18.6569 19 17V13V12ZM7 11C6.27143 11 5.58835 11.1948 5 11.5351V4C5 3.44772 5.44772 3 6 3C6.55228 3 7 3.44772 7 4V8.63636H7.02182C7.00741 8.75556 7 8.87692 7 9V10C7 10.3506 7.06015 10.6872 7.17071 11H7ZM11 9C11 8.44772 10.5523 8 10 8C9.44772 8 9 8.44772 9 9V10C9 10.5523 9.44772 11 10 11C10.5523 11 11 10.5523 11 10V9ZM15 9C15 8.44772 14.5523 8 14 8C13.4477 8 13 8.44772 13 9V10C13 10.5523 13.4477 11 14 11C14.5523 11 15 10.5523 15 10V9.72727V9Z" fill="black"/>
</svg>
