<svg width="24" height="24" viewBox="0 0 24 24" fill="none" xmlns="http://www.w3.org/2000/svg">
<path fill-rule="evenodd" clip-rule="evenodd" d="M9.66667 5.71429C9.66667 6.66286 10.4483 7.42857 11.4167 7.42857H12.245L8.255 16.5714H6.75C5.78167 16.5714 5 17.3371 5 18.2857C5 19.2343 5.78167 20 6.75 20H12.5833C13.5517 20 14.3333 19.2343 14.3333 18.2857C14.3333 17.3371 13.5517 16.5714 12.5833 16.5714H11.755L15.745 7.42857H17.25C18.2183 7.42857 19 6.66286 19 5.71429C19 4.76571 18.2183 4 17.25 4H11.4167C10.4483 4 9.66667 4.76571 9.66667 5.71429Z" fill="black"/>
</svg>
