<svg width="24" height="24" viewBox="0 0 24 24" fill="none" xmlns="http://www.w3.org/2000/svg">
<path fill-rule="evenodd" clip-rule="evenodd" d="M12 2C12.3544 2 12.6823 2.18754 12.8619 2.49298L22.8619 19.493C23.0438 19.8022 23.0461 20.1851 22.868 20.4965C22.69 20.8079 22.3587 21 22 21H2C1.64128 21 1.31005 20.8079 1.13195 20.4965C0.953855 20.1851 0.956189 19.8022 1.13807 19.493L11.1381 2.49298C11.3177 2.18754 11.6456 2 12 2ZM20.2516 19L12 4.97231L3.74842 19H20.2516ZM12 8C12.5523 8 13 8.44772 13 9V14C13 14.5523 12.5523 15 12 15C11.4477 15 11 14.5523 11 14V9C11 8.44772 11.4477 8 12 8ZM12 18C12.5523 18 13 17.5523 13 17C13 16.4477 12.5523 16 12 16C11.4477 16 11 16.4477 11 17C11 17.5523 11.4477 18 12 18Z" fill="black"/>
</svg>
