<svg width="24" height="24" viewBox="0 0 24 24" fill="none" xmlns="http://www.w3.org/2000/svg">
<path fill-rule="evenodd" clip-rule="evenodd" d="M5.85749 23.5145L19.8575 1.51453L18.1425 0.485535L4.1425 22.4855L5.85749 23.5145ZM17 23H7.73238L8.93238 21H11V18.9381C10.7454 18.9064 10.4945 18.8626 10.2479 18.8075L11.3531 16.9655C11.5656 16.9883 11.7814 17 12 17C15.3137 17 18 14.3137 18 11V7H20V11C20 15.0796 16.9463 18.446 13 18.9381V21H17V23ZM4 11C4 13.3766 5.03634 15.5112 6.68176 16.9764L7.73532 15.2205C6.66249 14.1365 6 12.6456 6 11V7H4V11ZM16 11C16 13.0207 14.5016 14.6914 12.5553 14.9618L16 9.22063V11ZM8.81527 13.4206L15.2593 2.68058C14.534 1.66333 13.3445 1 12 1C9.79086 1 8 2.79086 8 5V11C8 11.9097 8.30371 12.7486 8.81527 13.4206Z" fill="black"/>
</svg>
