<svg width="24" height="24" viewBox="0 0 24 24" fill="none" xmlns="http://www.w3.org/2000/svg">
<path fill-rule="evenodd" clip-rule="evenodd" d="M11.166 3.55233C11.5197 3.19868 11.9993 3 12.4995 3L19.1143 3.00003C20.1558 3.00003 21 3.84436 21 4.88584L20.9998 11.5005C20.9998 12.0006 20.8011 12.4802 20.4475 12.8338L10.8337 22.4477C10.0973 23.1841 8.90332 23.1841 8.16689 22.4477L1.55231 15.833C0.815895 15.0966 0.815895 13.9026 1.55231 13.1662L11.166 3.55233ZM12.5468 5L3.04732 14.4996L9.50031 20.9527L18.9998 11.4531L19 5.00003L12.5468 5ZM9.41951 21.0335C9.41957 21.0334 9.41964 21.0333 9.4197 21.0333L9.41951 21.0335ZM12.5801 4.9667C12.5801 4.96664 12.5802 4.96659 12.5803 4.96653L12.4994 4.88573L12.5803 4.96653L12.5801 4.9667ZM15.472 8.52813C14.9935 8.04966 14.2178 8.04966 13.7393 8.52813C13.2608 9.00661 13.2608 9.78237 13.7393 10.2608C14.2178 10.7393 14.9935 10.7393 15.472 10.2608C15.9504 9.78237 15.9504 9.00661 15.472 8.52813ZM12.3251 7.11393C13.5846 5.8544 15.6267 5.8544 16.8862 7.11393C18.1457 8.37345 18.1457 10.4155 16.8862 11.6751C15.6267 12.9346 13.5846 12.9346 12.3251 11.6751C11.0656 10.4155 11.0656 8.37345 12.3251 7.11393Z" fill="black"/>
</svg>
