<svg width="25" height="24" viewBox="0 0 25 24" fill="none" xmlns="http://www.w3.org/2000/svg">
<path d="M5.00244 22H19.0024C20.1064 22 21.0024 21.104 21.0024 20V8.99998C21.0024 8.44698 20.5554 7.99998 20.0024 7.99998H17.0024V7.22298C17.0024 4.61398 15.0994 2.27798 12.5024 2.02498C9.52244 1.73298 7.00244 4.07798 7.00244 6.99998V7.99998H4.00244C3.44944 7.99998 3.00244 8.44698 3.00244 8.99998V20C3.00244 21.104 3.89844 22 5.00244 22ZM17.0024 9.99998V12H15.0024V9.99998H17.0024ZM9.00244 6.99998C9.00244 5.34598 10.3484 3.99998 12.0024 3.99998C13.6564 3.99998 15.0024 5.34598 15.0024 6.99998V7.99998H9.00244V6.99998ZM7.00244 9.99998H9.00244V12H7.00244V9.99998Z" fill="black"/>
</svg>
