<svg width="24" height="24" viewBox="0 0 24 24" fill="none" xmlns="http://www.w3.org/2000/svg">
<g clip-path="url(#clip0)">
<path fill-rule="evenodd" clip-rule="evenodd" d="M18.9041 17.5628H17.5919L17.5981 16.7959C17.5981 16.4623 17.8729 16.1757 18.2125 16.1757H18.2945C18.6463 16.1757 18.9271 16.4623 18.9271 16.7959L18.9041 17.5628ZM13.9685 15.924C13.6347 15.924 13.3651 16.1527 13.3651 16.4273V20.1376C13.3651 20.4074 13.6347 20.6411 13.9685 20.6411C14.3024 20.6411 14.5771 20.4074 14.5771 20.1376V16.4273C14.5771 16.1527 14.3024 15.924 13.9685 15.924ZM21.9841 13.8464V20.91C21.9841 22.6067 20.5201 24 18.7163 24H5.27266C3.46897 24 2 22.6067 2 20.91V13.8464C2 12.1496 3.46991 10.7683 5.27266 10.7683H18.7163C20.5201 10.7683 21.9841 12.1496 21.9841 13.8464ZM6.16903 21.6829V14.239H7.83781V13.1333L3.39398 13.1274V14.216H4.78213V21.6839H6.16903V21.6829ZM11.1636 15.3505H9.77555V19.3189C9.77555 19.9041 9.81053 20.1846 9.77555 20.2907C9.65868 20.5951 9.15492 20.9229 8.95605 20.3256C8.92132 20.2086 8.95016 19.9041 8.95016 19.3537V15.3505H7.56207L7.56815 19.2949C7.56815 19.8921 7.55618 20.3484 7.57404 20.5471C7.6032 20.91 7.59216 21.3312 7.92602 21.5769C8.55248 22.0215 9.75248 21.5069 10.0513 20.863V21.682H11.1636V15.3505ZM15.6075 19.9031V16.5852C15.6075 15.3327 14.6651 14.5716 13.382 15.5904L13.3882 13.1323H11.9941V21.6359L13.1302 21.6129L13.2412 21.0867C14.6942 22.4199 15.6075 21.5072 15.6075 19.9031ZM19.9585 19.4586L18.9161 19.4706V20.1967C18.9161 20.5014 18.6582 20.7589 18.3426 20.7589H18.1437C17.828 20.7589 17.5761 20.5014 17.5761 20.1967V18.6516H19.9594V17.7567C19.9594 17.1124 19.9364 16.4452 19.8894 16.0768C19.7135 14.8891 18.0507 14.7075 17.2075 15.3096C16.9376 15.4974 16.7387 15.7481 16.6219 16.0937C16.5048 16.4332 16.4458 16.9017 16.4458 17.4979V19.4706C16.4509 22.7475 20.426 22.2792 19.9585 19.4586ZM14.6122 8.7486C14.6881 8.92462 14.8 9.06435 14.946 9.17013C15.0978 9.27515 15.2918 9.33387 15.5196 9.33387C15.7184 9.33387 15.8942 9.27515 16.0522 9.1581C16.2041 9.04725 16.3329 8.88351 16.4448 8.66074L16.4098 9.21099H17.9618V2.62208H16.7436V7.74893C16.7436 8.02947 16.5149 8.25218 16.2281 8.25218C15.9533 8.25218 15.7184 8.02358 15.7184 7.74893V2.62208H14.4532V7.06383C14.4532 7.62605 14.4652 8.00572 14.4762 8.19935C14.4954 8.38609 14.5483 8.57383 14.6122 8.7486ZM9.92245 5.02728C9.92245 4.39501 9.97536 3.90373 10.0804 3.54705C10.1804 3.19557 10.3731 2.90895 10.6479 2.69308C10.9229 2.47739 11.2685 2.37143 11.6963 2.37143C12.0529 2.37143 12.3637 2.44731 12.6216 2.57627C12.8734 2.72196 13.0722 2.89767 13.2071 3.12044C13.359 3.34321 13.453 3.57105 13.5001 3.80579C13.553 4.03933 13.576 4.40309 13.576 4.87645V6.55025C13.576 7.15852 13.5579 7.61013 13.5001 7.89681C13.4589 8.18344 13.359 8.44706 13.2013 8.69283C13.0494 8.93834 12.8493 9.12019 12.6037 9.23693C12.3637 9.36595 12.083 9.41884 11.7603 9.41884C11.4085 9.41884 11.1157 9.36595 10.8698 9.26707C10.618 9.16205 10.4312 9.01542 10.2962 8.81057C10.1613 8.6118 10.0626 8.36015 10.0094 8.07942C9.9506 7.7869 9.9215 7.3534 9.9215 6.77402V5.02728H9.92245ZM11.1345 7.64297C11.1345 8.01744 11.4154 8.31609 11.7492 8.31609C12.0889 8.31609 12.3637 8.01744 12.3637 7.64297V4.13721C12.3637 3.76888 12.083 3.46408 11.7492 3.46408C11.4093 3.46408 11.1345 3.76888 11.1345 4.13721V7.64297ZM6.84251 9.4159H8.30658L8.31273 4.36512L10.0344 0.0404171H8.4415L7.52213 3.24746L6.59078 0.0293884H5.00991L6.84251 4.36612V9.4159Z" fill="black"/>
</g>
<defs>
<clipPath id="clip0">
<rect x="2" width="20" height="24" fill="white"/>
</clipPath>
</defs>
</svg>
