<svg width="24" height="24" viewBox="0 0 24 24" fill="none" xmlns="http://www.w3.org/2000/svg">
<path d="M6 6C6 5.44772 6.44772 5 7 5H13.6716C13.9368 5 14.1911 5.10536 14.3787 5.29289L17.7071 8.62132C17.8946 8.80886 18 9.06321 18 9.32843V14H20V9.32843C20 8.53278 19.6839 7.76972 19.1213 7.20711L15.7929 3.87868C15.2303 3.31607 14.4672 3 13.6716 3H7C5.34315 3 4 4.34315 4 6V18C4 19.6569 5.34315 21 7 21H13V19H7C6.44772 19 6 18.5523 6 18V6Z" fill="black"/>
<path d="M9 8.9432V15.0568C9 15.8702 9.91937 16.3433 10.5812 15.8706L14.8608 12.8137C15.4191 12.4149 15.4191 11.5851 14.8608 11.1863L10.5812 8.12947C9.91937 7.6567 9 8.12983 9 8.9432Z" fill="black"/>
<path d="M18 16H20V19H23V21H20V24H18V21H15V19H18V16Z" fill="black"/>
</svg>
