<svg width="24" height="24" viewBox="0 0 24 24" fill="none" xmlns="http://www.w3.org/2000/svg">
<path fill-rule="evenodd" clip-rule="evenodd" d="M6 10.2C6 6.74909 8.71266 4 12 4C15.2873 4 18 6.74909 18 10.2C18 10.9382 17.6616 11.9294 17.0291 13.0849C16.4106 14.2148 15.5735 15.391 14.717 16.4692C13.8635 17.5436 13.0074 18.4999 12.3633 19.1887C12.2327 19.3284 12.111 19.4569 12 19.5729C11.889 19.4569 11.7673 19.3284 11.6367 19.1887C10.9926 18.4999 10.1365 17.5436 9.28301 16.4692C8.42655 15.391 7.5894 14.2148 6.97094 13.0849C6.33842 11.9294 6 10.9382 6 10.2ZM11.3017 21.7158C11.3018 21.7159 11.302 21.7161 12 21L11.302 21.7161C11.6903 22.0946 12.3097 22.0946 12.698 21.7161L12 21C12.698 21.7161 12.6982 21.7159 12.6983 21.7158L12.6988 21.7154L12.7001 21.714L12.7047 21.7095L12.7214 21.6931L12.7835 21.6317C12.8372 21.5784 12.9149 21.5006 13.0133 21.4007C13.2099 21.201 13.4894 20.9127 13.8242 20.5547C14.4926 19.8398 15.3865 18.8417 16.283 17.7132C17.1765 16.5884 18.0894 15.3131 18.7834 14.0452C19.4634 12.803 20 11.45 20 10.2C20 5.69801 16.4446 2 12 2C7.55535 2 4 5.69801 4 10.2C4 11.45 4.53658 12.803 5.21656 14.0452C5.9106 15.3131 6.82345 16.5884 7.71699 17.7132C8.61347 18.8417 9.50735 19.8398 10.1758 20.5547C10.5106 20.9127 10.7901 21.201 10.9867 21.4007C11.0851 21.5006 11.1628 21.5784 11.2165 21.6317L11.2786 21.6931L11.2953 21.7095L11.2999 21.714L11.3012 21.7154L11.3017 21.7158ZM10 10C10 8.89543 10.8954 8 12 8C13.1046 8 14 8.89543 14 10C14 11.1046 13.1046 12 12 12C10.8954 12 10 11.1046 10 10ZM12 6C9.79086 6 8 7.79086 8 10C8 12.2091 9.79086 14 12 14C14.2091 14 16 12.2091 16 10C16 7.79086 14.2091 6 12 6Z" fill="black"/>
</svg>
