<svg width="24" height="24" viewBox="0 0 24 24" fill="none" xmlns="http://www.w3.org/2000/svg">
<path fill-rule="evenodd" clip-rule="evenodd" d="M5 5C3.34315 5 2 6.34315 2 8V16C2 17.6569 3.34315 19 5 19H15C16.6569 19 18 17.6569 18 16V14L20.2929 16.2929C20.9229 16.9229 22 16.4767 22 15.5858V8.41421C22 7.52331 20.9229 7.07714 20.2929 7.70711L18 10V8C18 6.34315 16.6569 5 15 5H5ZM4 8C4 7.44772 4.44772 7 5 7H15C15.5523 7 16 7.44772 16 8V16C16 16.5523 15.5523 17 15 17H5C4.44772 17 4 16.5523 4 16V8Z" fill="black"/>
</svg>
