<svg width="24" height="24" viewBox="0 0 24 24" fill="none" xmlns="http://www.w3.org/2000/svg">
<path fill-rule="evenodd" clip-rule="evenodd" d="M12 3C8.52496 3 5.66667 5.75197 5.66667 9.2V12.8242C5.66667 13.5271 5.18782 14.1471 4.49272 14.3533C3.82201 14.5524 3 15.1786 3 16.2121C3 17.1995 3.80046 18 4.78788 18H19.2121C20.1995 18 21 17.1995 21 16.2121C21 15.1786 20.178 14.5524 19.5073 14.3533C18.8122 14.1471 18.3333 13.5271 18.3333 12.8242V9.2C18.3333 5.75197 15.475 3 12 3ZM7.66667 9.2C7.66667 6.90376 9.58171 5 12 5C14.4183 5 16.3333 6.90376 16.3333 9.2V12.8242C16.3333 14.2108 17.1275 15.3978 18.2729 16H5.72715C6.87247 15.3978 7.66667 14.2108 7.66667 12.8242V9.2ZM11.9996 21C10.7144 21 9.6034 20.19 9 19H15C14.3957 20.19 13.2856 21 11.9996 21Z" fill="black"/>
</svg>
