<svg width="16" height="16" viewBox="0 0 16 16" fill="none" xmlns="http://www.w3.org/2000/svg">
<path fill-rule="evenodd" clip-rule="evenodd" d="M8 14C11.3137 14 14 11.3137 14 8C14 4.68629 11.3137 2 8 2C4.68629 2 2 4.68629 2 8C2 11.3137 4.68629 14 8 14ZM7.70711 4.29289C7.31658 3.90237 6.68342 3.90237 6.29289 4.29289C5.90237 4.68342 5.90237 5.31658 6.29289 5.70711L8.58579 8L6.29289 10.2929C5.90237 10.6834 5.90237 11.3166 6.29289 11.7071C6.68342 12.0976 7.31658 12.0976 7.70711 11.7071L10.7071 8.70711C11.0976 8.31658 11.0976 7.68342 10.7071 7.29289L7.70711 4.29289Z" fill="black"/>
</svg>
