<svg width="25" height="24" viewBox="0 0 25 24" fill="none" xmlns="http://www.w3.org/2000/svg">
<path d="M21.6838 14.3223C21.284 13.9205 20.3966 13.7063 19.0472 13.6892C18.1338 13.6746 17.0342 13.7606 15.8776 13.9258C15.3601 13.6205 14.8258 13.2887 14.4066 12.8883C13.2798 11.8137 12.3393 10.3202 11.7532 8.67992C11.792 8.52661 11.8244 8.39176 11.8541 8.25431C11.8541 8.25431 12.4893 4.57071 12.3211 3.32566C12.2979 3.15516 12.2836 3.10498 12.2383 2.97281L12.1827 2.82873C12.0106 2.42164 11.6717 1.99081 11.1413 2.0146L10.8295 2H10.8204C10.2279 2 9.74664 2.30934 9.61985 2.77194C9.23432 4.22185 9.6315 6.39074 10.3521 9.19936L10.1684 9.65668C9.65349 10.9401 9.00663 12.2326 8.43739 13.3733L8.36365 13.5214C7.76466 14.7202 7.22 15.7378 6.72709 16.5996L6.21737 16.8745C6.17985 16.8943 5.30788 17.3662 5.10347 17.4918C3.3673 18.5505 2.21718 19.7532 2.02571 20.7075C1.96491 21.0115 2.01018 21.4014 2.31938 21.5824L2.81229 21.8348C3.02576 21.9445 3.25086 22 3.48244 22C4.71924 22 6.15527 20.426 8.13207 16.8997C10.4155 16.1397 13.0146 15.5092 15.2941 15.1603C17.0303 16.1595 19.1662 16.8534 20.5078 16.8534C20.7472 16.8534 20.9529 16.8296 21.121 16.7847C21.3798 16.7146 21.5971 16.5639 21.7304 16.3603C21.9917 15.9585 22.0448 15.4048 21.9736 14.8377C21.9529 14.6699 21.8209 14.4611 21.6786 14.3197L21.6838 14.3223ZM3.21335 21.0445C3.43845 20.4141 4.33112 19.169 5.65072 18.0641C5.73351 17.9954 5.93792 17.7997 6.12551 17.6173C4.74511 19.8656 3.8214 20.7629 3.21335 21.0431V21.0445ZM11.0274 2.65295C11.4246 2.65295 11.651 3.67724 11.6704 4.6368C11.6885 5.59636 11.4699 6.27047 11.1969 6.76876C10.9718 6.03125 10.8618 4.86813 10.8618 4.11212C10.8618 4.11212 10.845 2.65827 11.0274 2.65827V2.65295ZM8.69614 15.7643C8.97299 15.2581 9.26149 14.7241 9.55517 14.157C10.2732 12.7706 10.726 11.6855 11.0636 10.7947C11.7351 12.0424 12.5708 13.1037 13.5541 13.9536C13.677 14.0593 13.8063 14.1663 13.9435 14.2721C11.9447 14.6765 10.2176 15.1669 8.69614 15.7643ZM21.297 15.6506C21.1754 15.7272 20.8261 15.7735 20.6023 15.7735C19.8778 15.7735 18.9825 15.4352 17.7276 14.8853C18.2102 14.8483 18.6526 14.8298 19.0485 14.8298C19.7743 14.8298 19.989 14.8298 20.6993 15.0122C21.4095 15.1972 21.4186 15.5726 21.297 15.6506Z" fill="black"/>
</svg>
