<svg width="24" height="24" viewBox="0 0 24 24" fill="none" xmlns="http://www.w3.org/2000/svg">
<path fill-rule="evenodd" clip-rule="evenodd" d="M11.8898 3.94501C9.68696 3.94501 9.41051 3.95457 8.54533 3.99367C7.68185 4.03294 7.09245 4.1687 6.57672 4.3679C6.04325 4.57363 5.59072 4.84885 5.13988 5.29674C4.68871 5.74446 4.41158 6.19386 4.20374 6.72348C4.00265 7.23581 3.86578 7.82131 3.82691 8.6785C3.78821 9.5377 3.77808 9.81241 3.77808 12C3.77808 14.1876 3.78788 14.4613 3.82708 15.3205C3.86679 16.178 4.0035 16.7634 4.20391 17.2755C4.41124 17.8053 4.68837 18.2547 5.13938 18.7025C5.59005 19.1505 6.04257 19.4264 6.57571 19.6321C7.09177 19.8313 7.68134 19.9671 8.54466 20.0064C9.40984 20.0455 9.68612 20.055 11.8888 20.055C14.0918 20.055 14.3674 20.0455 15.2325 20.0064C16.096 19.9671 16.6861 19.8313 17.2022 19.6321C17.7355 19.4264 18.1873 19.1505 18.638 18.7025C19.0892 18.2547 19.3663 17.8053 19.5741 17.2757C19.7735 16.7634 19.9104 16.1779 19.951 15.3207C19.9898 14.4615 20 14.1876 20 12C20 9.81241 19.9898 9.53787 19.951 8.67867C19.9104 7.82114 19.7735 7.23581 19.5741 6.72365C19.3663 6.19386 19.0892 5.74446 18.638 5.29674C18.1868 4.84868 17.7356 4.57347 17.2017 4.3679C16.6846 4.1687 16.0948 4.03294 15.2314 3.99367C14.3662 3.95457 14.0907 3.94501 11.8872 3.94501L11.8898 3.94501ZM16.2193 6.73404C15.682 6.73404 15.246 7.16649 15.246 7.7003C15.246 8.23395 15.682 8.6669 16.2193 8.6669C16.7567 8.6669 17.1927 8.23395 17.1927 7.7003C17.1927 7.16666 16.7567 6.7337 16.2193 6.7337V6.73404ZM11.8898 7.86337C9.58949 7.86337 7.72446 9.71552 7.72446 12C7.72446 14.2844 9.58949 16.1357 11.8898 16.1357C14.1901 16.1357 16.0545 14.2844 16.0545 12C16.0545 9.71552 14.19 7.86337 11.8897 7.86337H11.8898ZM11.8898 9.31505C13.3829 9.31505 14.5934 10.5171 14.5934 12.0001C14.5934 13.4829 13.3829 14.6851 11.8898 14.6851C10.3965 14.6851 9.1861 13.4829 9.1861 12.0001C9.1861 10.5171 10.3965 9.31505 11.8898 9.31505Z" fill="black"/>
</svg>
