<svg width="24" height="25" viewBox="0 0 24 25" fill="none" xmlns="http://www.w3.org/2000/svg">
<path d="M3 12.0925C3 13.7465 4.346 15.0925 6 15.0925C6.794 15.0925 7.512 14.7775 8.049 14.2725L14.04 17.6965C14.022 17.8265 14 17.9565 14 18.0925C14 19.7465 15.346 21.0925 17 21.0925C18.654 21.0925 20 19.7465 20 18.0925C20 16.4385 18.654 15.0925 17 15.0925C16.206 15.0925 15.488 15.4075 14.951 15.9125L8.96 12.4895C8.978 12.3585 9 12.2285 9 12.0925C9 11.9565 8.978 11.8265 8.96 11.6955L14.951 8.27253C15.488 8.77753 16.206 9.09253 17 9.09253C18.654 9.09253 20 7.74653 20 6.09253C20 4.43853 18.654 3.09253 17 3.09253C15.346 3.09253 14 4.43853 14 6.09253C14 6.22853 14.022 6.35853 14.04 6.48953L8.049 9.91253C7.512 9.40753 6.794 9.09253 6 9.09253C4.346 9.09253 3 10.4385 3 12.0925Z" fill="black"/>
</svg>
