<svg width="24" height="24" viewBox="0 0 24 24" fill="none" xmlns="http://www.w3.org/2000/svg">
<path fill-rule="evenodd" clip-rule="evenodd" d="M11.9999 20C13.1732 20 14.1332 19.04 14.1332 17.8667V16.8H9.86657V17.8667C9.86657 19.04 10.8266 20 11.9999 20ZM4.53324 5.6C4.53324 6.48533 5.2479 7.2 6.13324 7.2H9.86657V10.4H14.1332V7.2H17.8666C18.7519 7.2 19.4666 6.48533 19.4666 5.6C19.4666 4.71467 18.7519 4 17.8666 4H6.13324C5.2479 4 4.53324 4.71467 4.53324 5.6ZM3.46657 14.6667H20.5332C21.1199 14.6667 21.5999 14.1867 21.5999 13.6C21.5999 13.0133 21.1199 12.5333 20.5332 12.5333H3.46657C2.8799 12.5333 2.3999 13.0133 2.3999 13.6C2.3999 14.1867 2.8799 14.6667 3.46657 14.6667Z" fill="black"/>
</svg>
