<svg width="16" height="16" viewBox="0 0 16 16" fill="none" xmlns="http://www.w3.org/2000/svg">
<path fill-rule="evenodd" clip-rule="evenodd" d="M8 14C11.3137 14 14 11.3137 14 8C14 4.68629 11.3137 2 8 2C4.68629 2 2 4.68629 2 8C2 11.3137 4.68629 14 8 14ZM7.69274 8.25556C7.52142 8.50741 7.43575 8.82593 7.43575 9.21111H9.12291C9.12291 8.97407 9.18622 8.77407 9.31285 8.61111C9.43948 8.44074 9.6406 8.23333 9.9162 7.98889C10.1471 7.78148 10.3333 7.6 10.4749 7.44444C10.6238 7.28148 10.7467 7.08519 10.8436 6.85556C10.9479 6.62593 11 6.35926 11 6.05556C11 5.41111 10.7393 4.90741 10.2179 4.54444C9.70391 4.18148 9.01862 4 8.16201 4C7.43203 4 6.79888 4.12963 6.26257 4.38889C5.73371 4.64815 5.31285 5.01481 5 5.48889L6.35196 6.27778C6.53818 6.01852 6.76536 5.81852 7.03352 5.67778C7.30912 5.52963 7.62197 5.45556 7.97207 5.45556C8.33706 5.45556 8.62756 5.53704 8.84358 5.7C9.06704 5.85556 9.17877 6.07037 9.17877 6.34444C9.17877 6.53704 9.11918 6.71111 9 6.86667C8.88827 7.01481 8.7095 7.2 8.46369 7.42222C8.12849 7.72593 7.87151 8.0037 7.69274 8.25556ZM7.51397 11.7111C7.72253 11.9037 7.97952 12 8.28492 12C8.59032 12 8.84358 11.9037 9.04469 11.7111C9.25326 11.5111 9.35754 11.2704 9.35754 10.9889C9.35754 10.7074 9.25698 10.4741 9.05587 10.2889C8.85475 10.0963 8.59777 10 8.28492 10C7.97207 10 7.71508 10.0963 7.51397 10.2889C7.31285 10.4741 7.21229 10.7074 7.21229 10.9889C7.21229 11.2704 7.31285 11.5111 7.51397 11.7111Z" fill="black"/>
</svg>
