<svg width="24" height="24" viewBox="0 0 24 24" fill="none" xmlns="http://www.w3.org/2000/svg">
<path fill-rule="evenodd" clip-rule="evenodd" d="M3 6C3 4.34315 4.34315 3 6 3H8V5H6C5.44772 5 5 5.44772 5 6V8H3V6ZM18 5H16V3H18C19.6569 3 21 4.34315 21 6V8H19V6C19 5.44772 18.5523 5 18 5ZM5 16V18C5 18.5523 5.44772 19 6 19H8V21H6C4.34315 21 3 19.6569 3 18V16H5ZM19 16H21V18C21 19.6569 19.6569 21 18 21H16V19H18C18.5523 19 19 18.5523 19 18V16ZM3 14V10H5V14H3ZM19 10V14H21V10H19ZM14 5H10V3H14V5ZM14 21V19H10V21H14ZM10 13L7 16V17H17V16V10L12 15L10 13ZM10 11C11.1046 11 12 10.1046 12 9C12 7.89543 11.1046 7 10 7C8.89543 7 8 7.89543 8 9C8 10.1046 8.89543 11 10 11Z" fill="black"/>
</svg>
