<svg width="25" height="24" viewBox="0 0 25 24" fill="none" xmlns="http://www.w3.org/2000/svg">
<path fill-rule="evenodd" clip-rule="evenodd" d="M5.00244 5C5.00244 4.44772 5.45016 4 6.00244 4H14.674C14.9392 4 15.1936 4.10536 15.3811 4.29289L18.7095 7.62132C18.8971 7.80886 19.0024 8.06321 19.0024 8.32843V19C19.0024 19.5523 18.5547 20 18.0024 20H6.00244C5.45016 20 5.00244 19.5523 5.00244 19V5ZM6.00244 2C4.34559 2 3.00244 3.34315 3.00244 5V19C3.00244 20.6569 4.34559 22 6.00244 22H18.0024C19.6593 22 21.0024 20.6569 21.0024 19V8.32843C21.0024 7.53278 20.6864 6.76972 20.1238 6.20711L16.7953 2.87868C16.2327 2.31607 15.4697 2 14.674 2H6.00244ZM11.0024 8H7.00244V10H11.0024V8ZM11.0024 12H7.00244V14H11.0024V12ZM13.0024 12H17.0024V14H13.0024V12ZM11.0024 16H7.00244V18H11.0024V16ZM13.0024 16H17.0024V18H13.0024V16Z" fill="black"/>
</svg>
