<svg width="24" height="25" viewBox="0 0 24 25" fill="none" xmlns="http://www.w3.org/2000/svg">
<path fill-rule="evenodd" clip-rule="evenodd" d="M7.21735 3.16219C7.21735 2.68164 6.82803 2.29208 6.34778 2.29208C5.86753 2.29208 5.47821 2.68164 5.47821 3.16219V6.77999C5.47821 7.26053 5.86753 7.65009 6.34778 7.65009C6.82803 7.65009 7.21735 7.26053 7.21735 6.77999V3.16219ZM2 10.2605C2 9.77991 2.38932 9.39035 2.86957 9.39035H16.7826H16.7827H17.6522C18.8053 9.39035 19.9112 9.84871 20.7266 10.6646C21.5419 11.4805 22 12.587 22 13.7409C22 14.8947 21.5419 16.0013 20.7266 16.8171C19.9112 17.633 18.8053 18.0914 17.6522 18.0914C17.6522 19.2452 17.1942 20.3518 16.3788 21.1677C15.5634 21.9835 14.4575 22.4419 13.3044 22.4419H6.34784C5.19472 22.4419 4.08883 21.9835 3.27345 21.1677C2.45808 20.3518 2 19.2452 2 18.0914V10.2605ZM17.6522 16.3512V11.1306C18.3441 11.1306 19.0076 11.4056 19.4968 11.8951C19.986 12.3846 20.2609 13.0486 20.2609 13.7409C20.2609 14.4332 19.986 15.0971 19.4968 15.5866C19.0076 16.0761 18.3441 16.3512 17.6522 16.3512ZM15.9131 11.1306V17.2099L15.913 17.2213L15.9131 17.2326V18.0914C15.9131 18.7837 15.6383 19.4476 15.149 19.9371C14.6598 20.4267 13.9963 20.7017 13.3044 20.7017H6.34784C5.65597 20.7017 4.99244 20.4267 4.50321 19.9371C4.01398 19.4476 3.73914 18.7837 3.73914 18.0914V11.1306H15.9131ZM9.82605 2.29208C10.3063 2.29208 10.6956 2.68164 10.6956 3.16219V6.77999C10.6956 7.26053 10.3063 7.65009 9.82605 7.65009C9.3458 7.65009 8.95648 7.26053 8.95648 6.77999V3.16219C8.95648 2.68164 9.3458 2.29208 9.82605 2.29208ZM14.174 3.16219C14.174 2.68164 13.7847 2.29208 13.3044 2.29208C12.8242 2.29208 12.4348 2.68164 12.4348 3.16219V6.77999C12.4348 7.26053 12.8242 7.65009 13.3044 7.65009C13.7847 7.65009 14.174 7.26053 14.174 6.77999V3.16219Z" fill="black"/>
</svg>
