<svg width="24" height="25" viewBox="0 0 24 25" fill="none" xmlns="http://www.w3.org/2000/svg">
<path fill-rule="evenodd" clip-rule="evenodd" d="M8.66671 3.13171C8.80705 3.13171 8.93928 3.16666 9.0553 3.22839L15.3071 6.37771L20.7532 3.24233C21.0111 3.09385 21.328 3.09491 21.5849 3.24513C21.8419 3.39535 22 3.67201 22 3.97129V17.4045C22 17.7058 21.8398 17.984 21.5801 18.1334L15.756 21.4865C15.6585 21.5444 15.5483 21.5828 15.4307 21.5966C15.3655 21.6043 15.2996 21.6043 15.2343 21.5964C15.1324 21.5843 15.0361 21.5536 14.9488 21.5078L8.69289 18.3564L3.24678 21.4918C2.98886 21.6402 2.67199 21.6392 2.41506 21.489C2.15813 21.3387 2 21.0621 2 20.7628V7.32959C2 7.0283 2.16024 6.75012 2.41988 6.60064L8.24175 3.24894C8.36618 3.17447 8.51149 3.13171 8.66671 3.13171ZM16.1667 19.3161L20.3333 16.9173V5.41803L16.1667 7.81682V19.3161ZM14.5 7.84848V19.4043L9.50005 16.8856V5.32978L14.5 7.84848ZM3.66667 7.81682L7.83338 5.418V16.9172L3.66667 19.3161V7.81682Z" fill="black"/>
</svg>
