<svg width="24" height="24" viewBox="0 0 24 24" fill="none" xmlns="http://www.w3.org/2000/svg">
<path fill-rule="evenodd" clip-rule="evenodd" d="M21 8.60001L23.7 11.3C23.9 11.5 24 11.7 24 12C24 12.3 23.9 12.5 23.7 12.7L21 15.4V20C21 20.6 20.6 21 20 21H15.4L12.7 23.7C12.5 23.9 12.3 24 12 24C11.7 24 11.5 23.9 11.3 23.7L8.59998 21H4C3.4 21 3 20.6 3 20V15.4L0.299988 12.7C0.0999878 12.5 0 12.3 0 12C0 11.7 0.0999878 11.5 0.299988 11.3L3 8.60001V4C3 3.4 3.4 3 4 3H8.59998L11.3 0.299988C11.5 0.0999878 11.7 0 12 0C12.3 0 12.5 0.0999878 12.7 0.299988L15.4 3H20C20.6 3 21 3.4 21 4V8.60001ZM19 15C19 14.6 19.2 14.3 19.5 14.1L21.6 12L19.5 9.89999C19.2 9.69999 19 9.4 19 9V5H15C14.6 5 14.3 4.8 14.1 4.5L12 2.39999L9.90002 4.5C9.70002 4.8 9.4 5 9 5H5V9C5 9.4 4.8 9.69999 4.5 9.89999L2.40002 12L4.5 14.1C4.8 14.3 5 14.6 5 15V19H9C9.4 19 9.70002 19.2 9.90002 19.5L12 21.6L14.1 19.5C14.3 19.2 14.6 19 15 19H19V15ZM12.4076 7.25445C12.2793 6.8596 11.7207 6.8596 11.5924 7.25445L10.7491 9.84976C10.6918 10.0263 10.5272 10.1459 10.3415 10.1459H7.61267C7.1975 10.1459 7.02488 10.6772 7.36076 10.9212L9.56846 12.5252C9.71867 12.6343 9.78153 12.8278 9.72415 13.0043L8.88088 15.5997C8.75259 15.9945 9.20451 16.3228 9.54039 16.0788L11.7481 14.4748C11.8983 14.3657 12.1017 14.3657 12.2519 14.4748L14.4596 16.0788C14.7955 16.3228 15.2474 15.9945 15.1191 15.5997L14.2758 13.0043C14.2185 12.8278 14.2813 12.6343 14.4315 12.5252L16.6392 10.9212C16.9751 10.6772 16.8025 10.1459 16.3873 10.1459H13.6585C13.4728 10.1459 13.3082 10.0263 13.2509 9.84976L12.4076 7.25445Z" fill="black"/>
</svg>
