<svg width="24" height="24" viewBox="0 0 24 24" fill="none" xmlns="http://www.w3.org/2000/svg">
<path fill-rule="evenodd" clip-rule="evenodd" d="M4 5C3.44772 5 3 5.44772 3 6C3 6.55228 3.44772 7 4 7C4.55228 7 5 6.55228 5 6C5 5.44772 4.55228 5 4 5ZM4 11C3.44772 11 3 11.4477 3 12C3 12.5523 3.44772 13 4 13C4.55228 13 5 12.5523 5 12C5 11.4477 4.55228 11 4 11ZM3 18C3 17.4477 3.44772 17 4 17C4.55228 17 5 17.4477 5 18C5 18.5523 4.55228 19 4 19C3.44772 19 3 18.5523 3 18ZM8 5C7.44772 5 7 5.44772 7 6C7 6.55228 7.44772 7 8 7H20C20.5523 7 21 6.55228 21 6C21 5.44772 20.5523 5 20 5H8ZM8 11C7.44772 11 7 11.4477 7 12C7 12.5523 7.44772 13 8 13H20C20.5523 13 21 12.5523 21 12C21 11.4477 20.5523 11 20 11H8ZM7 18C7 17.4477 7.44772 17 8 17H20C20.5523 17 21 17.4477 21 18C21 18.5523 20.5523 19 20 19H8C7.44772 19 7 18.5523 7 18Z" fill="black"/>
</svg>
