<svg width="24" height="24" viewBox="0 0 24 24" fill="none" xmlns="http://www.w3.org/2000/svg">
<path fill-rule="evenodd" clip-rule="evenodd" d="M9.30381 3.3094C9.4891 3.12409 9.74039 3.02 10.0024 3.02H13.9984C14.2604 3.02 14.5117 3.12409 14.697 3.3094C14.8823 3.49471 14.9864 3.74607 14.9864 4.00818V4.99554H9.01439V4.00818C9.01439 3.74607 9.11851 3.49471 9.30381 3.3094ZM6.99439 4.99554V4.00818C6.99439 3.21039 7.31129 2.44526 7.87539 1.88111C8.43949 1.31695 9.20459 1 10.0024 1H13.9984C14.7962 1 15.5613 1.31695 16.1254 1.88111C16.6895 2.44526 17.0064 3.21039 17.0064 4.00818V4.99554H20.991C21.5488 4.99554 22.001 5.44774 22.001 6.00554C22.001 6.56335 21.5488 7.01554 20.991 7.01554H20.0034V19.9937C20.0034 20.7914 19.6865 21.5566 19.1224 22.1207C18.5583 22.6849 17.7932 23.0018 16.9954 23.0018H7.00539C6.20759 23.0018 5.44248 22.6849 4.87838 22.1207C4.31428 21.5566 3.99739 20.7914 3.99739 19.9937V7.01554H3.00902C2.45122 7.01554 1.99902 6.56335 1.99902 6.00554C1.99902 5.44774 2.45122 4.99554 3.00902 4.99554H5.00703H6.99439ZM8.00439 7.01637H15.9964H17.9834V19.9937C17.9834 20.2558 17.8793 20.5071 17.694 20.6924C17.5087 20.8777 17.2574 20.9818 16.9954 20.9818H7.00539C6.74339 20.9818 6.4921 20.8777 6.3068 20.6924C6.12151 20.5071 6.01739 20.2558 6.01739 19.9937V7.01637H8.00439Z" fill="black"/>
</svg>
