<svg width="24" height="24" viewBox="0 0 24 24" fill="none" xmlns="http://www.w3.org/2000/svg">
<path d="M3.10387 2H20.8955C21.5054 2 21.9997 2.49364 22 3.10321V20.8955C22 21.504 21.505 21.999 20.8951 21.999H15.799L12.6823 22H3.10387C2.49463 22 2 21.5057 2 20.8955V3.10387C2 2.49364 2.49463 2 3.10387 2Z" fill="black"/>
<path d="M17.7938 8.30195C18.1962 8.70437 18.1962 9.35482 17.7938 9.75743L11.1028 16.4482C10.9021 16.649 10.6386 16.75 10.3751 16.75C10.1116 16.75 9.84809 16.649 9.64736 16.4482L6.30195 13.1028C5.89935 12.7004 5.89935 12.0498 6.30195 11.6474C6.70437 11.2448 7.35482 11.2448 7.75743 11.6474L10.3751 14.265L16.3384 8.30195C16.7408 7.89935 17.3912 7.89935 17.7938 8.30195Z" fill="white"/>
</svg>
