<svg width="24" height="24" viewBox="0 0 24 24" fill="none" xmlns="http://www.w3.org/2000/svg">
<path fill-rule="evenodd" clip-rule="evenodd" d="M3.71566 9.51897L3.71122 5.52824C3.65475 4.19395 4.65805 3.03678 5.99109 2.90813C7.37109 2.77495 8.58351 3.7923 8.69199 5.17446L8.69334 5.19169L8.7413 6.28701L12.231 2.12817C13.1185 1.07048 14.6954 0.932519 15.7531 1.82002C15.8948 1.93895 16.02 2.07026 16.1285 2.21104C17.0403 1.44885 18.3946 1.42569 19.3368 2.2163C20.0175 2.78749 20.3173 3.64424 20.2079 4.46435C20.4865 4.56138 20.7526 4.70976 20.9921 4.9107C22.0498 5.79821 22.1878 7.3751 21.3003 8.43279L20.3039 9.62016C20.4488 9.69888 20.5879 9.79318 20.7191 9.90324C21.7768 10.7907 21.9147 12.3676 21.0272 13.4253L16.2063 19.1707C16.205 19.1722 16.2037 19.1737 16.2024 19.1753C13.7167 22.1326 9.30449 22.5172 6.3445 20.0334C5.07476 18.968 4.27734 17.5452 3.97816 16.0361C3.78658 15.0696 3.72738 13.3978 3.70944 12.0528C3.70023 11.3621 3.70183 10.7269 3.70572 10.2646C3.70767 10.0333 3.7102 9.84484 3.71224 9.71385L3.71482 9.56219L3.71559 9.52204L3.71566 9.51897ZM14.5291 4.05653L11.6366 7.50373C11.2816 7.9268 11.3368 8.55756 11.7598 8.91256C12.1829 9.26756 12.8137 9.21238 13.1687 8.7893L17.3468 3.81002C17.5243 3.59848 17.8397 3.57089 18.0512 3.74839C18.2627 3.92589 18.2903 4.24126 18.1128 4.4528L13.9347 9.43209C13.5797 9.85517 13.6349 10.4859 14.058 10.8409C14.481 11.1959 15.1118 11.1407 15.4668 10.7177L19.0021 6.50442C19.1796 6.29288 19.495 6.26529 19.7065 6.44279C19.9181 6.62029 19.9457 6.93567 19.7682 7.14721L15.2687 12.5095C14.9137 12.9326 14.9688 13.5634 15.3919 13.9184C15.815 14.2734 16.4457 14.2182 16.8007 13.7951L18.7291 11.497C18.9066 11.2854 19.222 11.2578 19.4335 11.4353C19.6451 11.6128 19.6727 11.9282 19.4952 12.1398L14.6778 17.8808C14.6766 17.8822 14.6754 17.8836 14.6742 17.8851C12.8992 20.0004 9.74545 20.2764 7.63008 18.5014C6.72185 17.7393 6.15377 16.7255 5.93999 15.6471C5.7902 14.8916 5.72768 13.407 5.70926 12.0261C5.7003 11.3539 5.70185 10.7338 5.70565 10.2815C5.70756 10.0555 5.71002 9.87185 5.712 9.74506L5.71447 9.59943L5.71519 9.56207L5.71543 9.55017C5.71559 9.54267 5.71567 9.5352 5.71567 9.52774C5.71567 9.52806 5.71567 9.52741 5.71567 9.52774L5.71116 5.47644L5.70974 5.45005C5.69476 5.17267 5.90782 4.92546 6.18321 4.89888C6.44559 4.87356 6.66995 5.05793 6.69697 5.31831L6.85568 8.94306C6.87372 9.35505 7.14283 9.71373 7.53335 9.84626C7.92386 9.9788 8.35569 9.85801 8.62077 9.5421L13.7631 3.41374C13.9406 3.2022 14.256 3.17461 14.4675 3.35211C14.6789 3.52949 14.7062 3.84499 14.5291 4.05653Z" fill="black"/>
</svg>
