<svg width="26" height="26" viewBox="0 0 26 26" fill="none" xmlns="http://www.w3.org/2000/svg">
<path fill-rule="evenodd" clip-rule="evenodd" d="M6.63593 6.63604C6.24541 7.02656 6.24541 7.65973 6.63593 8.05025L11.5857 13L6.63593 17.9497C6.24541 18.3403 6.24541 18.9734 6.63593 19.364C7.02646 19.7545 7.65962 19.7545 8.05015 19.364L12.9999 14.4142L17.9496 19.364C18.3402 19.7545 18.9733 19.7545 19.3639 19.364C19.7544 18.9734 19.7544 18.3403 19.3639 17.9497L14.4141 13L19.3639 8.05025C19.7544 7.65973 19.7544 7.02656 19.3639 6.63604C18.9733 6.24551 18.3402 6.24552 17.9496 6.63604L12.9999 11.5858L8.05015 6.63604C7.65962 6.24551 7.02646 6.24551 6.63593 6.63604Z" fill="black"/>
</svg>
