<svg width="24" height="25" viewBox="0 0 24 25" fill="none" xmlns="http://www.w3.org/2000/svg">
<path fill-rule="evenodd" clip-rule="evenodd" d="M20.7203 6.33603C21.0939 6.71247 21.0939 7.37667 20.7203 7.75312L19.1251 9.32947L15.2164 5.39129L16.781 3.78418C17.1546 3.40773 17.9603 3.40774 18.334 3.78418L20.7203 6.33603ZM14.7733 7.03143L14.0635 6.31635L13.3538 7.03143L3.29025 17.1706L3 17.463V17.875V20.6296V21.6296H4H6.73401H7.15042L7.44376 21.3341L17.5073 11.1949L18.2065 10.4905L17.5073 9.78601L14.7733 7.03143ZM5 19.6296V18.2871L14.0635 9.15543L15.3886 10.4905L6.3176 19.6296H5Z" fill="black"/>
</svg>
