<svg width="24" height="24" viewBox="0 0 24 24" fill="none" xmlns="http://www.w3.org/2000/svg">
<path fill-rule="evenodd" clip-rule="evenodd" d="M3.5778 12.4831C3.43863 12.3026 3.31769 12.1399 3.21626 12C3.31769 11.8601 3.43863 11.6974 3.5778 11.5169C4.06291 10.8878 4.76304 10.0516 5.62413 9.21885C7.38597 7.51508 9.642 6 12 6C14.3581 6 16.6141 7.51508 18.3759 9.21885C19.237 10.0516 19.9372 10.8878 20.4223 11.5169C20.5614 11.6974 20.6824 11.8601 20.7838 12C20.6824 12.1399 20.5614 12.3026 20.4223 12.4831C19.9372 13.1122 19.237 13.9484 18.3759 14.7811C16.6141 16.4849 14.3581 18 12 18C9.642 18 7.38597 16.4849 5.62413 14.7811C4.76304 13.9484 4.06291 13.1122 3.5778 12.4831ZM22 12C22.8425 11.4612 22.8423 11.4609 22.8421 11.4606L22 12ZM22.8421 11.4606L23.1871 12L22.8425 12.5388L22 12C22.8425 12.5388 22.8418 12.5398 22.8417 12.5401L22.8405 12.5419L22.8368 12.5476L22.8246 12.5664C22.8143 12.5822 22.7996 12.6045 22.7808 12.6329C22.743 12.6895 22.6884 12.7704 22.6177 12.872C22.4763 13.0752 22.2702 13.3619 22.0061 13.7044C21.4792 14.3878 20.7148 15.3016 19.7663 16.2189C17.9088 18.0151 15.1648 20 12 20C8.83522 20 6.09125 18.0151 4.23381 16.2189C3.28525 15.3016 2.52091 14.3878 1.99397 13.7044C1.72987 13.3619 1.52379 13.0752 1.38241 12.872C1.31168 12.7704 1.25704 12.6895 1.21932 12.6329C1.20045 12.6045 1.18581 12.5822 1.17549 12.5664L1.16327 12.5476L1.15961 12.5419L1.15761 12.5388L2.00003 12C1.15761 11.4612 1.15822 11.4602 1.1584 11.4599L1.15961 11.4581L1.16327 11.4524L1.17549 11.4336C1.18581 11.4178 1.20045 11.3955 1.21932 11.3671C1.25704 11.3105 1.31168 11.2296 1.38241 11.128C1.52379 10.9248 1.72987 10.6381 1.99397 10.2956C2.52091 9.61225 3.28525 8.69844 4.23381 7.78115C6.09125 5.98492 8.83522 4 12 4C15.1648 4 17.9088 5.98492 19.7663 7.78115C20.7148 8.69844 21.4792 9.61225 22.0061 10.2956C22.2702 10.6381 22.4763 10.9248 22.6177 11.128C22.6884 11.2296 22.743 11.3105 22.7808 11.3671C22.7996 11.3955 22.8143 11.4178 22.8246 11.4336L22.8368 11.4524L22.8405 11.4581L22.8421 11.4606ZM1.15761 12.5388L0.812988 12L1.15761 11.4612L2.00003 12C1.15761 12.5388 1.15743 12.5385 1.15761 12.5388ZM12 15C13.6569 15 15 13.6569 15 12C15 10.3431 13.6569 9 12 9C10.3432 9 9.00003 10.3431 9.00003 12C9.00003 13.6569 10.3432 15 12 15Z" fill="black"/>
</svg>
