<svg width="24" height="24" viewBox="0 0 24 24" fill="none" xmlns="http://www.w3.org/2000/svg">
<path d="M20.3089 17.708C22.1959 15.66 22.0059 13.03 21.9999 13V10V5C21.9999 4.448 21.5529 4 20.9999 4H14.9999C13.8969 4 12.9999 4.897 12.9999 6V13C12.9999 13.552 13.4469 14 13.9999 14H14.9999H17.0779C17.0569 14.402 16.9549 14.912 16.6489 15.396C16.1409 16.197 15.1839 16.744 13.8029 17.02L12.9999 17.18V20H13.9999C16.7829 20 18.9059 19.229 20.3089 17.708ZM9.30192 17.708C11.1899 15.66 10.9989 13.03 10.9929 13V10V5C10.9929 4.448 10.5459 4 9.99292 4H3.99292C2.88992 4 1.99292 4.897 1.99292 6V13C1.99292 13.552 2.43992 14 2.99292 14H3.99292H6.07092C6.04992 14.402 5.94792 14.912 5.64192 15.396C5.13392 16.197 4.17692 16.744 2.79592 17.02L1.99292 17.18V20H2.99292C5.77592 20 7.89892 19.229 9.30192 17.708Z" fill="black"/>
</svg>
