<svg width="24" height="24" viewBox="0 0 24 24" fill="none" xmlns="http://www.w3.org/2000/svg">
<path fill-rule="evenodd" clip-rule="evenodd" d="M12.4444 3C7.43994 3 3.38184 7.13136 3.38184 12.2279C3.38184 16.305 5.97854 19.764 9.57938 20.9841C10.0323 21.0696 10.1986 20.784 10.1986 20.5402C10.1986 20.3202 10.1902 19.5933 10.1863 18.8222C7.66505 19.3804 7.13305 17.7334 7.13305 17.7334C6.7208 16.6668 6.12681 16.3832 6.12681 16.3832C5.30456 15.8105 6.18879 15.8222 6.18879 15.8222C7.09883 15.8873 7.57801 16.7732 7.57801 16.7732C8.3863 18.1839 9.69808 17.7761 10.2152 17.5403C10.2966 16.9439 10.5314 16.5368 10.7906 16.3063C8.77769 16.073 6.66167 15.2818 6.66167 11.7459C6.66167 10.7384 7.01569 9.91524 7.59542 9.26901C7.50132 9.03658 7.19112 8.09803 7.68321 6.82696C7.68321 6.82696 8.44423 6.57895 10.1761 7.77285C10.899 7.56839 11.6742 7.46586 12.4444 7.46234C13.2146 7.46586 13.9905 7.56839 14.7147 7.77285C16.4444 6.57895 17.2044 6.82696 17.2044 6.82696C17.6977 8.09803 17.3873 9.03658 17.2933 9.26901C17.8743 9.91524 18.226 10.7384 18.226 11.7459C18.226 15.2902 16.1059 16.0706 14.0879 16.299C14.4129 16.5854 14.7026 17.1469 14.7026 18.0079C14.7026 19.2426 14.692 20.2363 14.692 20.5402C14.692 20.7858 14.8552 21.0735 15.3145 20.9829C18.9134 19.7614 21.5068 16.3036 21.5068 12.2279C21.5068 7.13136 17.4493 3 12.4444 3Z" fill="black"/>
</svg>
