<svg width="24" height="24" viewBox="0 0 24 24" fill="none" xmlns="http://www.w3.org/2000/svg">
<path fill-rule="evenodd" clip-rule="evenodd" d="M2 9C2 6.23858 4.23858 4 7 4H17C19.7614 4 22 6.23858 22 9V13.5652C22 16.3266 19.7614 18.5652 17 18.5652H16.75V20.0174C16.75 21.659 14.8814 22.6015 13.5612 21.6257L9.42055 18.5652H7C4.23858 18.5652 2 16.3266 2 13.5652V9ZM7 6C5.34315 6 4 7.34315 4 9V13.5652C4 15.2221 5.34315 16.5652 7 16.5652H9.75C9.96398 16.5652 10.1723 16.6339 10.3444 16.761L14.75 20.0174V17.5652C14.75 17.0129 15.1977 16.5652 15.75 16.5652H17C18.6569 16.5652 20 15.2221 20 13.5652V9C20 7.34315 18.6569 6 17 6H7Z" fill="black"/>
</svg>
