<svg width="25" height="24" viewBox="0 0 25 24" fill="none" xmlns="http://www.w3.org/2000/svg">
<path fill-rule="evenodd" clip-rule="evenodd" d="M3.0055 15.7471C2.3415 14.4326 1.9963 12.9757 2 11.4988V11C2.2677 6.1202 6.12009 2.26773 10.9449 2.00155L11.5 2.00003C12.9747 1.99618 14.4321 2.34135 15.7508 3.00743C18.9651 4.61387 20.9986 7.90204 21 11.4996C21.0034 12.8327 20.7219 14.1513 20.1761 15.3661L20.9999 19.9376C21 20.7383 20.5585 20.9453 20 21.0039L15.366 20.1761C14.1512 20.722 12.8324 21.0035 11.4974 21C7.90199 20.9986 4.6138 18.9652 3.0055 15.7471ZM15.6162 18.1513L19 19L18.1513 15.6163C18.0669 15.3633 18.0871 15.0872 18.2074 14.8492C18.7314 13.8116 19.003 12.665 19 11.5026C18.9988 8.6602 17.3935 6.06427 14.8529 4.79453C13.8116 4.26857 12.6649 3.99699 11.5026 4.00003H11C7.24819 4.20853 4.2085 7.24824 3.9984 11.0551L3.9999 11.5026C3.9969 12.665 4.2685 13.8116 4.7926 14.8492C6.0642 17.3936 8.6601 18.9989 11.5003 19C12.6649 19.0031 13.8116 18.7315 14.8491 18.2074C15.0871 18.0872 15.3632 18.067 15.6162 18.1513Z" fill="black"/>
</svg>
