<svg width="24" height="24" viewBox="0 0 24 24" fill="none" xmlns="http://www.w3.org/2000/svg">
<path d="M20.6147 6.6157C20.3477 6.73484 20.0731 6.8354 19.7925 6.91704C20.1247 6.53919 20.3779 6.0946 20.5325 5.60809C20.5672 5.49903 20.5312 5.37967 20.4421 5.30835C20.3531 5.23697 20.2295 5.22842 20.1315 5.28683C19.5357 5.64229 18.8928 5.89773 18.2188 6.04711C17.5399 5.37978 16.6177 5 15.6644 5C13.6521 5 12.0149 6.6467 12.0149 8.67075C12.0149 8.83016 12.025 8.98869 12.0448 9.14502C9.54775 8.92449 7.22627 7.68994 5.63212 5.72299C5.5753 5.65288 5.48778 5.61509 5.39817 5.62232C5.30851 5.62938 5.22796 5.68024 5.18266 5.7584C4.85933 6.31645 4.6884 6.95471 4.6884 7.60412C4.6884 8.48861 5.00235 9.32782 5.55693 9.98356C5.3883 9.92482 5.22467 9.8514 5.06849 9.76419C4.98464 9.71725 4.88231 9.71797 4.79901 9.76601C4.71565 9.81405 4.66339 9.90242 4.6612 9.99901C4.66082 10.0153 4.66082 10.0316 4.66082 10.048C4.66082 11.3683 5.36725 12.557 6.44729 13.2048C6.3545 13.1955 6.26177 13.182 6.16964 13.1643C6.07466 13.146 5.977 13.1795 5.91294 13.2524C5.84878 13.3252 5.82756 13.4267 5.85712 13.5193C6.25689 14.7748 7.28616 15.6982 8.53044 15.9798C7.49844 16.6299 6.31826 16.9705 5.07934 16.9705C4.82083 16.9705 4.56085 16.9552 4.30639 16.9249C4.17999 16.9098 4.05913 16.9849 4.01608 17.1058C3.97303 17.2268 4.01866 17.3616 4.1262 17.431C5.71777 18.4574 7.5581 19 9.44811 19C13.1636 19 15.488 17.2376 16.7835 15.7592C18.3991 13.9157 19.3256 11.4755 19.3256 9.06454C19.3256 8.96381 19.3241 8.8621 19.321 8.76071C19.9584 8.27768 20.5072 7.69309 20.9537 7.02118C21.0216 6.91914 21.0142 6.78427 20.9356 6.69033C20.8572 6.59634 20.7264 6.56594 20.6147 6.6157Z" fill="black"/>
</svg>
