<svg width="25" height="24" viewBox="0 0 25 24" fill="none" xmlns="http://www.w3.org/2000/svg">
<path d="M18.9905 2.01215L21.9907 5.01245L19.7039 7.2992L16.7037 4.29889L18.9905 2.01215Z" fill="black"/>
<path d="M8.00244 16H11.0024L18.2894 8.71301L15.2894 5.71301L8.00244 13V16Z" fill="black"/>
<path d="M19.0024 19H8.16044C8.13444 19 8.10744 19.01 8.08144 19.01C8.04844 19.01 8.01544 19.001 7.98144 19H5.00244V5H11.8494L13.8494 3H5.00244C3.89944 3 3.00244 3.896 3.00244 5V19C3.00244 20.104 3.89944 21 5.00244 21H19.0024C20.1064 21 21.0024 20.104 21.0024 19V10.332L19.0024 12.332V19Z" fill="black"/>
</svg>
