<svg width="24" height="24" viewBox="0 0 24 24" fill="none" xmlns="http://www.w3.org/2000/svg">
<path fill-rule="evenodd" clip-rule="evenodd" d="M12 9C11.2597 9 10.6133 9.40219 10.2675 10H4C2.89542 10 2 10.8954 2 12V21C2 22.1046 2.89542 23 4 23H20C21.1046 23 22 22.1046 22 21V12C22 10.8954 21.1046 10 20 10H13.7325C13.3867 9.40219 12.7403 9 12 9ZM20 21V12H4V21H20Z" fill="black"/>
<path d="M10 18.5818V14.5C10 13.7353 10.8564 13.2791 11.4957 13.7033L14.5716 15.7442C15.1428 16.1232 15.1428 16.9586 14.5716 17.3376L11.4957 19.3785C10.8564 19.8027 10 19.3465 10 18.5818Z" fill="black"/>
<path d="M19.0711 4.92893C19.4616 4.53841 19.4643 3.90128 19.0401 3.5476C17.1325 1.95697 14.678 1 12 1C9.32203 1 6.86756 1.95697 4.95992 3.5476C4.53574 3.90128 4.53842 4.53841 4.92894 4.92893C5.31947 5.31946 5.94954 5.31446 6.38074 4.96937C7.92065 3.73698 9.87427 3 12 3C14.1258 3 16.0794 3.73698 17.6193 4.96937C18.0505 5.31446 18.6806 5.31946 19.0711 4.92893Z" fill="black"/>
<path d="M16.2427 7.75736C16.6332 7.36683 16.6368 6.72692 16.1949 6.39564C15.0258 5.5192 13.5736 5 12 5C10.4265 5 8.97418 5.5192 7.80514 6.39564C7.36325 6.72692 7.36684 7.36684 7.75737 7.75736C8.14789 8.14788 8.77699 8.13768 9.23703 7.8321C10.0286 7.30632 10.9785 7 12 7C13.0215 7 13.9714 7.30632 14.763 7.8321C15.223 8.13768 15.8521 8.14788 16.2427 7.75736Z" fill="black"/>
</svg>
