<svg width="16" height="16" viewBox="0 0 16 16" fill="none" xmlns="http://www.w3.org/2000/svg">
<path fill-rule="evenodd" clip-rule="evenodd" d="M8 3.69503L6.99026 5.8372C6.78268 6.27759 6.36909 6.60518 5.86482 6.6819L3.51484 7.03943L5.2456 8.80584C5.59038 9.15773 5.73756 9.65087 5.65999 10.1244L5.26123 12.5587L7.2883 11.4429C7.7322 11.1985 8.2678 11.1985 8.7117 11.4429L10.7388 12.5587L10.34 10.1244C10.2624 9.65087 10.4096 9.15772 10.7544 8.80584L12.4852 7.03943L10.1352 6.6819C9.63091 6.60518 9.21732 6.27759 9.00974 5.8372L8 3.69503ZM8.44222 2.28782C8.26133 1.90406 7.73867 1.90406 7.55778 2.28782L6.08571 5.41083C6.01388 5.56322 5.87503 5.66884 5.71441 5.69328L2.42277 6.19408C2.01828 6.25562 1.85677 6.77607 2.14946 7.07478L4.53132 9.5057C4.64754 9.62432 4.70058 9.79523 4.67314 9.96272L4.11086 13.3952C4.04177 13.817 4.4646 14.1387 4.82639 13.9395L7.77052 12.3189C7.91419 12.2399 8.08581 12.2399 8.22948 12.3189L11.1736 13.9395C11.5354 14.1387 11.9582 13.817 11.8891 13.3952L11.3269 9.96272C11.2994 9.79523 11.3525 9.62432 11.4687 9.5057L13.8505 7.07478C14.1432 6.77606 13.9817 6.25562 13.5772 6.19408L10.2856 5.69328C10.125 5.66884 9.98612 5.56322 9.91428 5.41083L8.44222 2.28782Z" fill="black"/>
</svg>
