<svg width="24" height="24" viewBox="0 0 24 24" fill="none" xmlns="http://www.w3.org/2000/svg">
<path fill-rule="evenodd" clip-rule="evenodd" d="M5.89186 3C4.83039 3 3.95381 3.82923 3.89493 4.88906L3.11716 18.8891C3.05347 20.0355 3.96591 21 5.11408 21H18.8857C20.0339 21 20.9463 20.0355 20.8826 18.8891L20.1048 4.88906C20.0459 3.82923 19.1694 3 18.1079 3H5.89186ZM5.44741 5.94453C5.47685 5.41461 5.91513 5 6.44587 5H17.5539C18.0846 5 18.5229 5.41461 18.5524 5.94453L18.9412 12.9445C18.9731 13.5177 18.5169 14 17.9428 14H16.7807C16.3218 14 15.9218 14.3123 15.8105 14.7575L15.1892 17.2425C15.078 17.6877 14.678 18 14.2191 18H9.78066C9.32179 18 8.92181 17.6877 8.81052 17.2425L8.18925 14.7575C8.07796 14.3123 7.67797 14 7.21911 14H6.05698C5.48289 14 5.02667 13.5177 5.05852 12.9445L5.44741 5.94453Z" fill="black"/>
</svg>
