<svg width="24" height="24" viewBox="0 0 24 24" fill="none" xmlns="http://www.w3.org/2000/svg">
<path fill-rule="evenodd" clip-rule="evenodd" d="M14.4063 8.66867H18.6727V7.45476H14.4063V8.66867ZM15.417 11.3174C15.1451 11.5921 14.9736 11.9643 14.9035 12.4339H18.2218C18.1868 11.9327 18.0144 11.5541 17.7094 11.2933C17.4005 11.0343 17.0207 10.9053 16.566 10.9053C16.0734 10.9053 15.6888 11.0427 15.417 11.3174ZM18.2967 9.6877C18.8111 9.91229 19.2345 10.2687 19.5679 10.755C19.872 11.1838 20.0671 11.6812 20.1562 12.2464C20.2083 12.5768 20.2291 13.0557 20.2206 13.6784H14.8562C14.8884 14.4014 15.1423 14.909 15.6273 15.1995C15.9209 15.3805 16.2743 15.4715 16.6892 15.4715C17.1259 15.4715 17.483 15.361 17.7567 15.1411C17.9074 15.0213 18.04 14.8561 18.1536 14.6445H20.1192C20.0671 15.0715 19.8284 15.5067 19.4059 15.9485C18.7466 16.6492 17.8231 17 16.6361 17C15.6557 17 14.7908 16.7049 14.0434 16.1128C13.2923 15.5216 12.919 14.5582 12.919 13.2255C12.919 11.9754 13.2572 11.0167 13.9326 10.3494C14.6099 9.68399 15.4861 9.34895 16.5651 9.34895C17.2064 9.34895 17.7833 9.46218 18.2967 9.6877ZM6.09586 12.4599V15.0612H8.51329C8.94525 15.0612 9.28247 15.0037 9.52213 14.8896C9.95882 14.6761 10.1767 14.2715 10.1767 13.6719C10.1767 13.1633 9.9664 12.8153 9.54297 12.6251C9.30616 12.5193 8.97366 12.4636 8.54739 12.4599H6.09586ZM6.09586 8.69374V10.8459H8.51707C8.94808 10.8459 9.29951 10.7652 9.57043 10.6037C9.83946 10.4422 9.97491 10.1564 9.97491 9.74803C9.97491 9.29235 9.79683 8.99258 9.44066 8.84595C9.13185 8.74478 8.73968 8.69374 8.2632 8.69374H6.09586ZM11.5028 8.03944C11.8069 8.45429 11.9594 8.94988 11.9594 9.52807C11.9594 10.123 11.8069 10.6028 11.4991 10.9647C11.3267 11.1671 11.0737 11.3527 10.7393 11.5197C11.2471 11.7016 11.6298 11.9884 11.8903 12.381C12.1479 12.7726 12.2777 13.2497 12.2777 13.8102C12.2777 14.3884 12.1299 14.9072 11.8334 15.3657C11.6459 15.6691 11.411 15.9253 11.1287 16.1332C10.8113 16.3717 10.4372 16.5341 10.0043 16.6232C9.57137 16.7114 9.10342 16.7541 8.59758 16.7541H4.11133V7H8.92249C10.1369 7.01763 10.9961 7.3638 11.5028 8.03944Z" fill="black"/>
</svg>
