<svg width="24" height="24" viewBox="0 0 24 24" fill="none" xmlns="http://www.w3.org/2000/svg">
<path fill-rule="evenodd" clip-rule="evenodd" d="M16.8174 4.0177C17.4324 3.90353 18 4.37547 18 5.0009V13.8296H17.0637C15.3717 13.8296 14 15.2013 14 16.8933V16.9571C14 18.6139 15.3431 19.9571 17 19.9571C18.6569 19.9571 20 18.6139 20 16.9571V16.8927V13.8296V5.0009C20 3.12463 18.2971 1.70878 16.4523 2.05131L9.45232 3.35107C8.03098 3.61499 7 4.85503 7 6.30066V15.8721H6.06372C4.37168 15.8721 3 17.2438 3 18.9358V18.9995C3 20.6564 4.34315 21.9995 6 21.9995C7.65685 21.9995 9 20.6564 9 18.9995V16.8927V15.8721V6.30066C9 5.81878 9.34366 5.40544 9.81744 5.31746L16.8174 4.0177ZM7 18.9358C7 19.4998 6.55228 19.9571 6 19.9571C5.44772 19.9571 5 19.4998 5 18.9358C5 18.3718 5.44772 17.9146 6 17.9146C6.55228 17.9146 7 18.3718 7 18.9358ZM17 17.9146C17.5523 17.9146 18 17.4574 18 16.8933C18 16.3293 17.5523 15.8721 17 15.8721C16.4477 15.8721 16 16.3293 16 16.8933C16 17.4574 16.4477 17.9146 17 17.9146Z" fill="black"/>
</svg>
