<svg width="24" height="24" viewBox="0 0 24 24" fill="none" xmlns="http://www.w3.org/2000/svg">
<path d="M5 6C5 5.44772 5.44772 5 6 5H9.22222C9.77451 5 10.2222 4.55228 10.2222 4C10.2222 3.44772 9.77451 3 9.22222 3H6C4.34315 3 3 4.34315 3 6V18C3 19.6569 4.34315 21 6 21H18C19.6569 21 21 19.6569 21 18V14.7778C21 14.2255 20.5523 13.7778 20 13.7778C19.4477 13.7778 19 14.2255 19 14.7778V18C19 18.5523 18.5523 19 18 19H6C5.44772 19 5 18.5523 5 18V6Z" fill="black"/>
<path d="M14 3C13.4477 3 13 3.44772 13 4C13 4.55228 13.4477 5 14 5H17.5858L11.2929 11.2929C10.9024 11.6834 10.9024 12.3166 11.2929 12.7071C11.6834 13.0976 12.3166 13.0976 12.7071 12.7071L19 6.41421V10C19 10.5523 19.4477 11 20 11C20.5523 11 21 10.5523 21 10V4C21 3.44772 20.5523 3 20 3H14Z" fill="black"/>
<path d="M5 6C5 5.44772 5.44772 5 6 5H9.22222C9.77451 5 10.2222 4.55228 10.2222 4C10.2222 3.44772 9.77451 3 9.22222 3H6C4.34315 3 3 4.34315 3 6V18C3 19.6569 4.34315 21 6 21H18C19.6569 21 21 19.6569 21 18V14.7778C21 14.2255 20.5523 13.7778 20 13.7778C19.4477 13.7778 19 14.2255 19 14.7778V18C19 18.5523 18.5523 19 18 19H6C5.44772 19 5 18.5523 5 18V6Z" stroke="black"/>
<path d="M14 3C13.4477 3 13 3.44772 13 4C13 4.55228 13.4477 5 14 5H17.5858L11.2929 11.2929C10.9024 11.6834 10.9024 12.3166 11.2929 12.7071C11.6834 13.0976 12.3166 13.0976 12.7071 12.7071L19 6.41421V10C19 10.5523 19.4477 11 20 11C20.5523 11 21 10.5523 21 10V4C21 3.44772 20.5523 3 20 3H14Z" stroke="black"/>
</svg>
