<svg width="24" height="24" viewBox="0 0 24 24" fill="none" xmlns="http://www.w3.org/2000/svg">
<path fill-rule="evenodd" clip-rule="evenodd" d="M5.05727 5.43926C5.18298 5.0289 5.44243 4.47787 5.86504 4.00236C6.32325 3.4868 7.03415 3 8 3C9.65686 3 11 4.34315 11 6H13C13 4.34315 14.3431 3 16 3C16.9659 3 17.6768 3.4868 18.135 4.00236C18.5576 4.47787 18.817 5.0289 18.9427 5.43926L22.4201 13.6083L22.3973 13.6181C22.7817 14.3262 23 15.1376 23 16C23 18.7614 20.7614 21 18 21C15.2386 21 13 18.7614 13 16V15.7324C12.7058 15.9026 12.3643 16 12 16C11.6357 16 11.2942 15.9026 11 15.7324V16C11 18.7614 8.76142 21 6 21C3.23858 21 1 18.7614 1 16C1 15.1376 1.21833 14.3262 1.60274 13.6181L1.5799 13.6083L5.05727 5.43926ZM4.80242 11.1443C5.18611 11.05 5.58721 11 6 11C7.12561 11 8.16434 11.3719 9 11.9996L9 6C9 5.44772 8.55229 5 8 5C7.76586 5 7.56009 5.1058 7.35996 5.33097C7.14797 5.5695 7.01232 5.87193 6.96265 6.04852L6.94526 6.11035L4.80242 11.1443ZM9 16C9 14.3431 7.65685 13 6 13C4.34315 13 3 14.3431 3 16C3 17.6569 4.34315 19 6 19C7.65685 19 9 17.6569 9 16ZM15 16C15 17.6569 16.3431 19 18 19C19.6569 19 21 17.6569 21 16C21 14.3431 19.6569 13 18 13C16.3431 13 15 14.3431 15 16ZM15 11.9996V6C15 5.44772 15.4477 5 16 5C16.2341 5 16.4399 5.1058 16.64 5.33097C16.852 5.5695 16.9877 5.87193 17.0373 6.04852L17.0547 6.11035L19.1976 11.1443C18.8139 11.05 18.4128 11 18 11C16.8744 11 15.8357 11.3719 15 11.9996ZM11 13L11 12.9989C11.0006 12.4471 11.4481 12 12 12C12.5523 12 13 12.4477 13 13C13 13.5523 12.5523 14 12 14C11.4481 14 11.0006 13.5529 11 13.0011L11 13Z" fill="black"/>
</svg>
