<svg width="24" height="24" viewBox="0 0 24 24" fill="none" xmlns="http://www.w3.org/2000/svg">
<path fill-rule="evenodd" clip-rule="evenodd" d="M12 3C11.4477 3 11 3.44772 11 4V20C11 20.5523 11.4477 21 12 21C12.5523 21 13 20.5523 13 20V4C13 3.44772 12.5523 3 12 3ZM7 8C7 7.44772 7.44772 7 8 7C8.55228 7 9 7.44772 9 8V16C9 16.5523 8.55228 17 8 17C7.44772 17 7 16.5523 7 16V8ZM3 10C3 9.44772 3.44772 9 4 9C4.55228 9 5 9.44772 5 10V14C5 14.5523 4.55228 15 4 15C3.44772 15 3 14.5523 3 14V10ZM15 8C15 7.44772 15.4477 7 16 7C16.5523 7 17 7.44772 17 8V16C17 16.5523 16.5523 17 16 17C15.4477 17 15 16.5523 15 16V8ZM20 9C19.4477 9 19 9.44772 19 10V14C19 14.5523 19.4477 15 20 15C20.5523 15 21 14.5523 21 14V10C21 9.44772 20.5523 9 20 9Z" fill="black"/>
</svg>
