<svg width="24" height="24" viewBox="0 0 24 24" fill="none" xmlns="http://www.w3.org/2000/svg">
<path fill-rule="evenodd" clip-rule="evenodd" d="M9 0.5C9 0.223858 8.77614 0 8.5 0H7.5C7.22386 0 7 0.223858 7 0.5V2.5C7 2.77614 7.22386 3 7.5 3H8.5C8.77614 3 9 2.77614 9 2.5V0.5ZM14.5714 9L13 8.45001V7.5C13 7.22386 13.2239 7 13.5 7H15.5C15.7761 7 16 7.22386 16 7.5V8.5C16 8.77614 15.7761 9 15.5 9H14.5714ZM6.68611 7.96033L7.74461 10.9846C6.23131 10.8315 5.05023 9.55368 5.05023 8C5.05023 6.34315 6.39338 5 8.05023 5C9.6278 5 10.921 6.21767 11.0411 7.7644L7.96032 6.68612C7.1695 6.40934 6.40932 7.16951 6.68611 7.96033ZM9 14.5714L8.45 13H7.5C7.22386 13 7 13.2239 7 13.5V15.5C7 15.7761 7.22386 16 7.5 16H8.5C8.77614 16 9 15.7761 9 15.5V14.5714ZM0 7.5C0 7.22386 0.223858 7 0.5 7H2.5C2.77614 7 3 7.22386 3 7.5V8.5C3 8.77614 2.77614 9 2.5 9H0.5C0.223858 9 0 8.77614 0 8.5V7.5ZM3.4038 1.9896C3.20854 1.79434 2.89196 1.79434 2.6967 1.9896L1.98959 2.69671C1.79433 2.89197 1.79433 3.20855 1.98959 3.40381L3.4038 4.81803C3.59906 5.01329 3.91565 5.01329 4.11091 4.81803L4.81802 4.11092C5.01328 3.91566 5.01328 3.59908 4.81802 3.40381L3.4038 1.9896ZM14.0104 2.69671C14.2057 2.89197 14.2057 3.20855 14.0104 3.40381L12.5962 4.81803C12.4009 5.01329 12.0843 5.01329 11.8891 4.81803L11.182 4.11092C10.9867 3.91566 10.9867 3.59908 11.182 3.40381L12.5962 1.9896C12.7914 1.79434 13.108 1.79434 13.3033 1.9896L14.0104 2.69671ZM4.81801 11.8891C5.01328 12.0844 5.01327 12.4009 4.81801 12.5962L3.4038 14.0104C3.20853 14.2057 2.89195 14.2057 2.69669 14.0104L1.98959 13.3033C1.79432 13.108 1.79432 12.7915 1.98958 12.5962L3.4038 11.182C3.59906 10.9867 3.91564 10.9867 4.1109 11.182L4.81801 11.8891ZM13.25 23L8.34306 8.98017C8.20466 8.58475 8.58475 8.20467 8.98016 8.34306L23 13.25L17.9782 15.6442L22.849 20.5149C23.0443 20.7102 23.0443 21.0268 22.849 21.2221L21.1703 22.9007C20.9751 23.096 20.6585 23.096 20.4632 22.9007L15.6108 18.0483L13.25 23Z" fill="black"/>
</svg>
