<svg width="24" height="24" viewBox="0 0 24 24" fill="none" xmlns="http://www.w3.org/2000/svg">
<path d="M18.364 2.8076C17.1924 1.63603 15.2929 1.63603 14.1213 2.8076L11.7071 5.22182C11.3166 5.61234 11.3166 6.24551 11.7071 6.63603C12.0977 7.02656 12.7308 7.02656 13.1213 6.63603L15.5356 4.22182C15.9261 3.83129 16.5593 3.83129 16.9498 4.22182L19.7782 7.05024C20.1687 7.44077 20.1687 8.07393 19.7782 8.46446L14.1213 14.1213C13.7308 14.5118 13.0977 14.5118 12.7071 14.1213L11.2929 12.7071C10.9024 12.3166 10.2692 12.3166 9.87871 12.7071C9.48818 13.0976 9.48818 13.7308 9.87871 14.1213L11.2929 15.5355C12.4645 16.7071 14.364 16.7071 15.5356 15.5355L21.1924 9.87867C22.364 8.7071 22.364 6.8076 21.1924 5.63603L18.364 2.8076Z" fill="black"/>
<path d="M9.8787 9.87868C10.2692 9.48815 10.9024 9.48815 11.2929 9.87868L12.7071 11.2929C13.0977 11.6834 13.7308 11.6834 14.1213 11.2929C14.5119 10.9024 14.5119 10.2692 14.1213 9.87868L12.7071 8.46446C11.5356 7.29289 9.63606 7.29289 8.46449 8.46446L2.80763 14.1213C1.63606 15.2929 1.63606 17.1924 2.80763 18.364L5.63606 21.1924C6.80764 22.364 8.70713 22.364 9.8787 21.1924L12.2929 18.7782C12.6834 18.3876 12.6834 17.7545 12.2929 17.364C11.9024 16.9734 11.2692 16.9734 10.8787 17.364L8.46449 19.7782C8.07397 20.1687 7.4408 20.1687 7.05028 19.7782L4.22185 16.9497C3.83132 16.5592 3.83132 15.9261 4.22185 15.5355L9.8787 9.87868Z" fill="black"/>
</svg>
