<svg width="24" height="24" viewBox="0 0 24 24" fill="none" xmlns="http://www.w3.org/2000/svg">
<path fill-rule="evenodd" clip-rule="evenodd" d="M12.0001 6.92308C13.9883 6.92308 15.6001 5.37329 15.6001 3.46154C15.6001 1.54978 13.9883 0 12.0001 0C10.0118 0 8.40006 1.54978 8.40006 3.46154C8.40006 5.37329 10.0118 6.92308 12.0001 6.92308ZM4.80007 6.92312C6.12555 6.92312 7.20007 5.88994 7.20007 4.61543C7.20007 3.34093 6.12555 2.30774 4.80007 2.30774C3.47459 2.30774 2.40007 3.34093 2.40007 4.61543C2.40007 5.88994 3.47459 6.92312 4.80007 6.92312ZM16.8001 4.61543C16.8001 5.88994 17.8746 6.92312 19.2001 6.92312C20.5256 6.92312 21.6001 5.88994 21.6001 4.61543C21.6001 3.34093 20.5256 2.30774 19.2001 2.30774C17.8746 2.30774 16.8001 3.34093 16.8001 4.61543ZM9.23317 8.0769C8.05996 8.0769 7.0587 8.89247 6.86583 10.0052L6.23295 13.6564C6.17188 14.0088 6.28295 14.3452 6.50223 14.5934C7.42962 12.4778 9.54226 11 12.0001 11C14.4579 11 16.5705 12.4778 17.4979 14.5934C17.7172 14.3452 17.8283 14.0088 17.7672 13.6564L17.1343 10.0052C16.9414 8.89247 15.9402 8.0769 14.767 8.0769H9.23317ZM0.814206 9.93202C1.03857 8.85335 2.02357 8.0769 3.1676 8.0769H6.00007L4.80007 13.8461H1.46384C0.70658 13.8461 0.138629 13.18 0.287139 12.466L0.814206 9.93202ZM20.8325 8.0769C21.9766 8.0769 22.9616 8.85335 23.1859 9.93202L23.713 12.466C23.8615 13.18 23.2936 13.8461 22.5363 13.8461H19.2001L18.0001 8.0769H20.8325ZM15.9288 13.4915L8.92881 24L8.07132 23.5085L15.0713 13L15.9288 13.4915ZM9.86623 23.7542H14.5001V22.7988H12.5001V21.814C14.4732 21.5789 16.0001 19.9709 16.0001 18.0222V16.1116H15.0001V18.0222C15.0001 19.6051 13.6569 20.8882 12.0001 20.8882C11.8908 20.8882 11.7828 20.8826 11.6766 20.8717L11.124 21.7516C11.2473 21.7779 11.3727 21.7988 11.5001 21.814V22.7988H10.4662L9.86623 23.7542ZM9.34093 20.8769C8.51823 20.177 8.00007 19.1574 8.00007 18.0222V16.1116H9.00007V18.0222C9.00007 18.8083 9.33131 19.5204 9.86771 20.0382L9.34093 20.8769ZM12.2777 19.9146C13.2509 19.7855 14.0001 18.9875 14.0001 18.0222V17.1723L12.2777 19.9146ZM13.6297 14.0484L10.4077 19.1784C10.1519 18.8574 10.0001 18.4568 10.0001 18.0222V15.1563C10.0001 14.1011 10.8955 13.2457 12.0001 13.2457C12.6723 13.2457 13.2671 13.5625 13.6297 14.0484Z" fill="black"/>
</svg>
