<svg width="24" height="24" viewBox="0 0 24 24" fill="none" xmlns="http://www.w3.org/2000/svg">
<path fill-rule="evenodd" clip-rule="evenodd" d="M15.7333 11.76C16.8562 10.9943 17.6434 9.73714 17.6434 8.57143C17.6434 5.98857 15.6175 4 13.0129 4H6.93545C6.29876 4 5.77783 4.51429 5.77783 5.14286V18.8571C5.77783 19.4857 6.29876 20 6.93545 20H13.6265C16.0227 20 18.2106 18.0686 18.2222 15.6914C18.2338 13.9429 17.2382 12.4457 15.7333 11.76ZM9.25068 6.85715H12.7235C13.6843 6.85715 14.4599 7.62286 14.4599 8.57144C14.4599 9.52001 13.6843 10.2857 12.7235 10.2857H9.25068V6.85715ZM13.3023 17.1429H9.25068V13.7143H13.3023C14.2631 13.7143 15.0387 14.48 15.0387 15.4286C15.0387 16.3772 14.2631 17.1429 13.3023 17.1429Z" fill="black"/>
</svg>
