<svg width="24" height="24" viewBox="0 0 24 24" fill="none" xmlns="http://www.w3.org/2000/svg">
<path fill-rule="evenodd" clip-rule="evenodd" d="M12 4C10.496 4 9.18587 4.83007 8.50274 6.05708L6.7541 5.08561C7.7788 3.2451 9.74399 2 12 2C15.3137 2 18 4.68629 18 8V9C19.6569 9 21 10.3431 21 12V19C21 20.6569 19.6569 22 18 22H6C4.34315 22 3 20.6569 3 19V12C3 10.3431 4.34315 9 6 9H16V8C16 5.79086 14.2091 4 12 4ZM6 11H16H18C18.5523 11 19 11.4477 19 12V19C19 19.5523 18.5523 20 18 20H6C5.44772 20 5 19.5523 5 19V12C5 11.4477 5.44772 11 6 11Z" fill="black"/>
</svg>
