<svg width="24" height="24" viewBox="0 0 24 24" fill="none" xmlns="http://www.w3.org/2000/svg">
<path d="M12 2C6.486 2 2 6.486 2 12C2 17.514 6.486 22 12 22C17.514 22 22 17.514 22 12C22 6.486 17.514 2 12 2ZM7 10.5C7 9.672 7.672 9 8.5 9C9.328 9 10 9.672 10 10.5C10 11.328 9.328 12 8.5 12C7.672 12 7 11.328 7 10.5ZM16 17H7.974V15H16V17ZM15.493 11.986C14.669 11.986 14 11.317 14 10.493C14 9.669 14.669 9 15.493 9C16.317 9 16.986 9.669 16.986 10.493C16.986 11.317 16.317 11.986 15.493 11.986Z" fill="black"/>
</svg>
