<svg width="24" height="24" viewBox="0 0 24 24" fill="none" xmlns="http://www.w3.org/2000/svg">
<path d="M19.6647 16.8068C19.3774 17.4706 19.0374 18.0816 18.6434 18.6434C18.1064 19.4092 17.6667 19.9393 17.3279 20.2337C16.8026 20.7169 16.2398 20.9644 15.6371 20.9784C15.2045 20.9784 14.6827 20.8553 14.0753 20.6055C13.466 20.3568 12.906 20.2337 12.394 20.2337C11.857 20.2337 11.281 20.3568 10.665 20.6055C10.048 20.8553 9.55099 20.9855 9.17098 20.9984C8.59305 21.023 8.017 20.7685 7.44201 20.2337C7.07501 19.9135 6.61598 19.3647 6.06607 18.5871C5.47607 17.7567 4.991 16.7939 4.61099 15.6961C4.20402 14.5104 4 13.3622 4 12.2507C4 10.9773 4.27507 9.87913 4.82603 8.95883C5.25904 8.21961 5.83509 7.6365 6.55606 7.20842C7.27703 6.78035 8.05605 6.56221 8.89497 6.54825C9.35401 6.54825 9.95597 6.69028 10.704 6.9694C11.45 7.24947 11.9289 7.3915 12.1389 7.3915C12.2959 7.3915 12.828 7.22543 13.73 6.89435C14.583 6.58731 15.3029 6.46017 15.8927 6.51025C17.4908 6.63926 18.6915 7.26941 19.49 8.40468C18.0607 9.27092 17.3537 10.4842 17.3677 12.0406C17.3806 13.2529 17.8203 14.2618 18.6845 15.0628C19.0761 15.4346 19.5134 15.7219 20 15.926C19.8945 16.2321 19.7831 16.5253 19.6647 16.8068ZM15.9994 2.38011C15.9994 3.33032 15.6524 4.21754 14.9606 5.03874C14.1258 6.01498 13.116 6.5791 12.021 6.49008C12.007 6.37608 11.9989 6.25611 11.9989 6.13003C11.9989 5.21782 12.396 4.24158 13.101 3.44337C13.453 3.03922 13.9006 2.70318 14.4435 2.43511C14.9852 2.17104 15.4976 2.025 15.9795 2C15.9936 2.12703 15.9994 2.25406 15.9994 2.38009V2.38011Z" fill="black"/>
</svg>
