<svg width="24" height="24" viewBox="0 0 24 24" fill="none" xmlns="http://www.w3.org/2000/svg">
<path fill-rule="evenodd" clip-rule="evenodd" d="M11.0909 2C10.0868 2 9.27273 2.81403 9.27273 3.81818L9.27273 5.41578L8.14305 4.28611C7.43301 3.57606 6.2818 3.57606 5.57176 4.28611L4.28611 5.57176C3.57606 6.2818 3.57606 7.43301 4.28611 8.14305L5.41578 9.27273H3.81818C2.81403 9.27273 2 10.0868 2 11.0909V12.9091C2 13.9132 2.81403 14.7273 3.81818 14.7273H5.41578L4.28611 15.8569C3.57607 16.567 3.57606 17.7182 4.28611 18.4282L5.57176 19.7139C6.2818 20.4239 7.43301 20.4239 8.14305 19.7139L9.27273 18.5842L9.27273 20.1818C9.27273 21.186 10.0868 22 11.0909 22H12.9091C13.9132 22 14.7273 21.186 14.7273 20.1818V18.5842L15.8569 19.7139C16.567 20.4239 17.7182 20.4239 18.4282 19.7139L19.7139 18.4282C20.4239 17.7182 20.4239 16.567 19.7139 15.8569L18.5842 14.7273H20.1818C21.186 14.7273 22 13.9132 22 12.9091V11.0909C22 10.0868 21.186 9.27273 20.1818 9.27273L18.5842 9.27273L19.7139 8.14305C20.4239 7.43301 20.4239 6.2818 19.7139 5.57176L18.4282 4.28611C17.7182 3.57606 16.567 3.57606 15.8569 4.28611L14.7273 5.41578V3.81818C14.7273 2.81403 13.9132 2 12.9091 2H11.0909ZM6.85741 5.57176L7.98708 6.70143C9.13247 7.84682 11.0909 7.03561 11.0909 5.41578V3.81818L12.9091 3.81818V5.41578C12.9091 7.0356 14.8675 7.84682 16.0129 6.70143L17.1426 5.57176L18.4282 6.85741L17.2986 7.98708C16.1532 9.13247 16.9644 11.0909 18.5842 11.0909H20.1818V12.9091H18.5842C16.9644 12.9091 16.1532 14.8675 17.2986 16.0129L18.4282 17.1426L17.1426 18.4282L16.0129 17.2986C14.8675 16.1532 12.9091 16.9644 12.9091 18.5842V20.1818H11.0909V18.5842C11.0909 16.9644 9.13247 16.1532 7.98708 17.2986L6.85741 18.4282L5.57176 17.1426L6.70143 16.0129C7.84682 14.8675 7.03561 12.9091 5.41578 12.9091H3.81818V11.0909H5.41578C7.0356 11.0909 7.84682 9.13247 6.70143 7.98708L5.57176 6.85741L6.85741 5.57176ZM10.1818 12C10.1818 10.9958 10.9958 10.1818 12 10.1818C13.0042 10.1818 13.8182 10.9958 13.8182 12C13.8182 13.0042 13.0042 13.8182 12 13.8182C10.9958 13.8182 10.1818 13.0042 10.1818 12ZM12 8.36364C9.99169 8.36364 8.36364 9.99169 8.36364 12C8.36364 14.0083 9.99169 15.6364 12 15.6364C14.0083 15.6364 15.6364 14.0083 15.6364 12C15.6364 9.99169 14.0083 8.36364 12 8.36364Z" fill="black"/>
</svg>
