<svg width="24" height="24" viewBox="0 0 24 24" fill="none" xmlns="http://www.w3.org/2000/svg">
<path d="M12 2C6.486 2 2 6.486 2 12C2 17.514 6.486 22 12 22C17.514 22 22 17.514 22 12C22 6.486 17.514 2 12 2ZM6.435 8.467C6.72 8.179 7.096 8.019 7.492 8.016C7.865 8.013 8.222 8.149 8.502 8.4C8.776 8.145 9.131 8.003 9.504 8C9.9 7.996 10.279 8.15 10.567 8.433C11.164 9.025 11.171 9.954 10.585 10.551L8.535 12.634L6.453 10.584C5.855 9.997 5.849 9.066 6.435 8.467ZM12 18C8 18 7 14 7 14H17C17 14 16 18 12 18ZM17.585 10.551L15.535 12.634L13.453 10.584C12.855 9.997 12.849 9.066 13.434 8.467C13.719 8.179 14.095 8.019 14.492 8.016C14.865 8.013 15.222 8.149 15.502 8.4C15.776 8.145 16.131 8.003 16.504 8C16.9 7.996 17.279 8.15 17.567 8.433C18.164 9.024 18.172 9.954 17.585 10.551Z" fill="black"/>
</svg>
