<svg width="24" height="24" viewBox="0 0 24 24" fill="none" xmlns="http://www.w3.org/2000/svg">
<path d="M20 10.999H22C22 5.869 18.127 2 12.99 2V4C17.052 4 20 6.943 20 10.999Z" fill="black"/>
<path d="M13 8C15.103 8 16 8.897 16 11H18C18 7.775 16.225 6 13 6V8ZM16.422 13.443C16.023 13.08 15.407 13.099 15.031 13.486L12.638 15.947C12.062 15.837 10.904 15.476 9.71204 14.287C8.52004 13.094 8.15904 11.933 8.05204 11.361L10.511 8.967C10.899 8.591 10.917 7.976 10.554 7.576L6.85904 3.513C6.49604 3.112 5.87904 3.074 5.46804 3.426L3.29804 5.287C3.12504 5.461 3.02204 5.691 3.00804 5.936C2.99304 6.186 2.70704 12.108 7.29904 16.702C11.305 20.707 16.323 21 17.705 21C17.907 21 18.031 20.994 18.064 20.992C18.309 20.978 18.539 20.875 18.712 20.701L20.572 18.53C20.925 18.119 20.885 17.503 20.486 17.139L16.422 13.443Z" fill="black"/>
</svg>
