<svg width="25" height="24" viewBox="0 0 25 24" fill="none" xmlns="http://www.w3.org/2000/svg">
<g clip-path="url(#clip0)">
<path fill-rule="evenodd" clip-rule="evenodd" d="M23.4025 8.10002C23.8025 8.30003 24.0025 8.60002 24.0025 9.00002C24.0025 9.40002 23.8025 9.70002 23.4025 9.90002L19.0025 11.9V17.0001C19.0025 18.7001 15.9025 20.0001 12.0024 20.0001C8.10247 20.0001 5.00246 18.7001 5.00246 17.0001V11.9L0.602419 9.90002C0.202417 9.70002 0.00244141 9.40002 0.00244141 9.00002C0.00244141 8.60002 0.302418 8.30003 0.602419 8.10002L11.6024 3.10001C11.7024 3.00001 11.9024 3 12.0024 3C12.1024 3 12.3025 3.00001 12.4025 3.10001L23.4025 8.10002ZM12.0024 18.0001C14.8025 18.0001 17.0025 17.1001 17.0025 17.0001V12.8L12.4025 14.9C12.3025 15 12.1024 15 12.0024 15C11.9024 15 11.7024 15 11.6024 14.9L7.00247 12.8V17.0001C7.00247 17.2001 9.20248 18.0001 12.0024 18.0001ZM3.40743 8.99948L12.0013 12.8991L20.6044 8.89873L12.0036 5.09982L3.40743 8.99948Z" fill="black"/>
</g>
<defs>
<clipPath id="clip0">
<path d="M0.00244141 0H24.0024V24H0.00244141V0Z" fill="white"/>
</clipPath>
</defs>
</svg>
