<svg width="24" height="24" viewBox="0 0 24 24" fill="none" xmlns="http://www.w3.org/2000/svg">
<path fill-rule="evenodd" clip-rule="evenodd" d="M5 3C3.34315 3 2 4.34315 2 6V10V13V18C2 19.6569 3.34315 21 5 21H19C20.6569 21 22 19.6569 22 18V10C22 8.34315 20.6569 7 19 7H12V6C12 4.34315 10.6569 3 9 3H5ZM10 7V6C10 5.44772 9.55228 5 9 5H5C4.44772 5 4 5.44772 4 6V7.17071C4.31278 7.06015 4.64936 7 5 7H10ZM4 10V13V18C4 18.5523 4.44772 19 5 19H19C19.5523 19 20 18.5523 20 18V10C20 9.44772 19.5523 9 19 9H5C4.44772 9 4 9.44772 4 10Z" fill="black"/>
</svg>
