<svg width="24" height="25" viewBox="0 0 24 25" fill="none" xmlns="http://www.w3.org/2000/svg">
<path d="M20 17.0925C20 17.6445 19.552 18.0925 19 18.0925C18.448 18.0925 18 17.6445 18 17.0925V5.09253C18 4.53953 17.553 4.09253 17 4.09253H3C2.447 4.09253 2 4.53953 2 5.09253V18.0925C2 19.1965 2.896 20.0925 4 20.0925H15H17.172H19C20.654 20.0925 22 18.7465 22 17.0925V7.09253H20V17.0925ZM12 7.09253H15V9.09253H12V7.09253ZM12 11.0925H15V13.0925H12V11.0925ZM5 7.09253H10V13.0925H5V7.09253ZM5 17.0925V15.0925H15V17.0925H5Z" fill="black"/>
</svg>
