<svg width="16" height="16" viewBox="0 0 16 16" fill="none" xmlns="http://www.w3.org/2000/svg">
<path d="M7.55778 2.28782C7.73867 1.90406 8.26133 1.90406 8.44222 2.28782L9.91428 5.41083C9.98612 5.56322 10.125 5.66884 10.2856 5.69328L13.5772 6.19408C13.9817 6.25562 14.1432 6.77606 13.8505 7.07478L11.4687 9.5057C11.3525 9.62432 11.2994 9.79523 11.3269 9.96272L11.8891 13.3952C11.9582 13.817 11.5354 14.1387 11.1736 13.9395L8.22948 12.3189C8.08581 12.2399 7.91419 12.2399 7.77052 12.3189L4.82639 13.9395C4.4646 14.1387 4.04177 13.817 4.11086 13.3952L4.67314 9.96272C4.70058 9.79523 4.64754 9.62432 4.53132 9.5057L2.14946 7.07478C1.85677 6.77607 2.01828 6.25562 2.42277 6.19408L5.71441 5.69328C5.87503 5.66884 6.01388 5.56322 6.08571 5.41083L7.55778 2.28782Z" fill="black"/>
</svg>
