<svg width="24" height="24" viewBox="0 0 24 24" fill="none" xmlns="http://www.w3.org/2000/svg">
<path fill-rule="evenodd" clip-rule="evenodd" d="M7.90937 3.81819C7.54771 3.81819 7.20086 3.96186 6.94513 4.21759C6.6894 4.47333 6.54573 4.82018 6.54573 5.18184C6.54573 5.5435 6.6894 5.89035 6.94513 6.14608C7.19796 6.39891 7.53986 6.54221 7.89708 6.54543H10.7767C10.6657 6.25509 10.5252 5.93584 10.3515 5.61995C9.77967 4.58033 8.99474 3.81819 7.90937 3.81819ZM4.72753 5.18184C4.72753 5.65804 4.83428 6.12323 5.03453 6.54543H2.90934C2.40726 6.54543 2.00024 6.95244 2.00024 7.45452V12C2.00024 12.5021 2.40726 12.9091 2.90934 12.9091H3.81813V21.0909C3.81813 21.593 4.22515 22 4.72723 22H11.9928L12.0001 22.0001L12.0074 22H19.2728C19.7748 22 20.1819 21.593 20.1819 21.0909V12.9091H21.0913C21.5933 12.9091 22.0004 12.5021 22.0004 12V7.45452C22.0004 6.95244 21.5933 6.54543 21.0913 6.54543H18.9659C19.1661 6.12323 19.2729 5.65804 19.2729 5.18184C19.2729 4.33796 18.9376 3.52865 18.3409 2.93194C17.7442 2.33523 16.9349 2 16.091 2C13.9946 2 12.734 3.51061 12.0558 4.74373C12.0369 4.77804 12.0184 4.81232 12.0002 4.84655C11.982 4.81232 11.9635 4.77804 11.9446 4.74373C11.2664 3.51061 10.0058 2 7.90937 2C7.06549 2 6.25618 2.33523 5.65947 2.93194C5.06276 3.52865 4.72753 4.33796 4.72753 5.18184ZM16.1033 6.54543H13.2237C13.3347 6.25509 13.4752 5.93584 13.6489 5.61995C14.2207 4.58033 15.0057 3.81819 16.091 3.81819C16.4527 3.81819 16.7995 3.96186 17.0553 4.21759C17.311 4.47333 17.4547 4.82018 17.4547 5.18184C17.4547 5.5435 17.311 5.89035 17.0553 6.14608C16.8024 6.39891 16.4605 6.54221 16.1033 6.54543ZM12.9092 8.36367V11.0909H19.2656L19.2728 11.0909L19.2799 11.0909H20.1822V8.36362H16.1099C16.1036 8.36366 16.0973 8.36367 16.091 8.36367H12.9092ZM3.81844 8.36362H7.89052L7.90937 8.36367H11.091V11.0909H4.73439L4.72723 11.0909L4.72006 11.0909H3.81844V8.36362ZM12.9092 20.1818H18.3637V12.9091H12.9092V20.1818ZM11.091 12.9091V20.1818H5.63632V12.9091H11.091Z" fill="black"/>
</svg>
