<svg width="24" height="24" viewBox="0 0 24 24" fill="none" xmlns="http://www.w3.org/2000/svg">
<path fill-rule="evenodd" clip-rule="evenodd" d="M5 2C3.34315 2 2 3.34315 2 5V13C2 14.6569 3.34315 16 5 16H9.29674L4.34921 20.2407C3.92988 20.6002 3.88132 21.2315 4.24074 21.6508C4.60017 22.0701 5.23147 22.1187 5.65079 21.7593L12 16.3171L18.3492 21.7593C18.7685 22.1187 19.3998 22.0701 19.7593 21.6508C20.1187 21.2315 20.0701 20.6002 19.6508 20.2407L14.7033 16H19C20.6569 16 22 14.6569 22 13V5C22 3.34315 20.6569 2 19 2H5ZM4 5C4 4.44772 4.44772 4 5 4H19C19.5523 4 20 4.44772 20 5V13C20 13.5523 19.5523 14 19 14H5C4.44772 14 4 13.5523 4 13V5Z" fill="black"/>
</svg>
