<svg width="24" height="25" viewBox="0 0 24 25" fill="none" xmlns="http://www.w3.org/2000/svg">
<path fill-rule="evenodd" clip-rule="evenodd" d="M3 3.29953C2.44772 3.29953 2 3.7506 2 4.30702V17.4044C2 17.9608 2.44772 18.4119 3 18.4119H9C9.53043 18.4119 10.0391 18.6242 10.4142 19.0021C10.7846 19.3753 10.9947 19.8798 10.9999 20.407V20.4269C10.9999 20.9833 11.4476 21.4344 11.9999 21.4344C12.5406 21.4344 12.9811 21.002 12.9993 20.4617C12.9998 20.4511 13 20.4395 13 20.4269V20.4071C13.0051 19.8798 13.2152 19.3753 13.5857 19.0021C13.9608 18.6242 14.4695 18.4119 14.9999 18.4119H20.9999C21.5522 18.4119 21.9999 17.9608 21.9999 17.4044V4.30702C21.9999 3.7506 21.5522 3.29953 20.9999 3.29953H15.9999C14.6738 3.29953 13.4021 3.83026 12.4644 4.77497C12.2961 4.94449 12.1411 5.12484 12 5.31441C11.8588 5.12484 11.7038 4.94449 11.5355 4.77497C10.5979 3.83026 9.32608 3.29953 8 3.29953H3ZM13 16.9368V7.32949C13 7.32311 13 7.31673 13 7.31035C13.005 6.51565 13.3205 6.76208 13.8786 6.19977C14.4412 5.63295 15.2043 5.31451 15.9999 5.31451H19.9999V16.3969H14.9999C14.2917 16.3969 13.6029 16.5861 13 16.9368ZM10.9999 7.31024C10.9949 6.51558 10.6794 6.76206 10.1213 6.19977C9.55871 5.63295 8.79565 5.31451 8 5.31451H4V16.3969H9C9.70819 16.3969 10.397 16.5861 10.9999 16.9368V7.32949C10.9999 7.32307 10.9999 7.31666 10.9999 7.31024Z" fill="black"/>
</svg>
