<svg width="24" height="24" viewBox="0 0 24 24" fill="none" xmlns="http://www.w3.org/2000/svg">
<path fill-rule="evenodd" clip-rule="evenodd" d="M5 5C5 4.44772 5.44772 4 6 4H14.6716C14.9368 4 15.1911 4.10536 15.3787 4.29289L18.7071 7.62132C18.8946 7.80886 19 8.06321 19 8.32843V19C19 19.5523 18.5523 20 18 20H6C5.44772 20 5 19.5523 5 19V5ZM6 2C4.34315 2 3 3.34315 3 5V19C3 20.6569 4.34315 22 6 22H18C19.6569 22 21 20.6569 21 19V8.32843C21 7.53278 20.6839 6.76972 20.1213 6.20711L16.7929 2.87868C16.2303 2.31607 15.4672 2 14.6716 2H6ZM9 8.9432V15.0568C9 15.8702 9.91937 16.3433 10.5812 15.8706L14.8608 12.8137C15.4191 12.4149 15.4191 11.5851 14.8608 11.1863L10.5812 8.12947C9.91937 7.6567 9 8.12983 9 8.9432Z" fill="black"/>
</svg>
