<svg width="24" height="24" viewBox="0 0 24 24" fill="none" xmlns="http://www.w3.org/2000/svg">
<path d="M19.2214 4H4.88923C4.39845 4 4 4.39492 4 4.88309V19.1164C4 19.6046 4.39845 20 4.88923 20H12.6052V13.8039H10.5058V11.3888H12.6052V9.60785C12.6052 7.54159 13.8757 6.41586 15.7321 6.41586C16.6221 6.41586 17.3853 6.48199 17.6079 6.5107V8.67049L16.3202 8.67101C15.3108 8.67101 15.1161 9.1476 15.1161 9.84654V11.388H17.5243L17.2095 13.8028H15.1159V19.9992H19.2211C19.7124 19.9992 20.1111 19.6032 20.1111 19.1164V4.88257C20.1108 4.39492 19.7127 4 19.2214 4Z" fill="black"/>
</svg>
