<svg width="24" height="24" viewBox="0 0 24 24" fill="none" xmlns="http://www.w3.org/2000/svg">
<path fill-rule="evenodd" clip-rule="evenodd" d="M13 7.5C13 6.18832 14.0633 5.125 15.375 5.125C16.6867 5.125 17.75 6.18832 17.75 7.5C17.75 8.81168 16.6867 9.875 15.375 9.875C14.0633 9.875 13 8.81168 13 7.5ZM15.375 3.125C12.9588 3.125 11 5.08375 11 7.5C11 9.91625 12.9588 11.875 15.375 11.875C17.7912 11.875 19.75 9.91625 19.75 7.5C19.75 5.08375 17.7912 3.125 15.375 3.125ZM5.125 8.625C5.125 7.93464 5.68464 7.375 6.375 7.375C7.06536 7.375 7.625 7.93464 7.625 8.625C7.625 9.31536 7.06536 9.875 6.375 9.875C5.68464 9.875 5.125 9.31536 5.125 8.625ZM6.375 5.375C4.58007 5.375 3.125 6.83007 3.125 8.625C3.125 10.4199 4.58007 11.875 6.375 11.875C8.16993 11.875 9.625 10.4199 9.625 8.625C9.625 6.83007 8.16993 5.375 6.375 5.375ZM10.625 14.125C10.0727 14.125 9.625 14.5727 9.625 15.125V17.875C9.625 18.4273 10.0727 18.875 10.625 18.875H20.125C20.6773 18.875 21.125 18.4273 21.125 17.875V15.125C21.125 14.5727 20.6773 14.125 20.125 14.125H19.3125C18.7602 14.125 18.3125 13.6773 18.3125 13.125C18.3125 12.5727 18.7602 12.125 19.3125 12.125H20.125C21.7819 12.125 23.125 13.4681 23.125 15.125V17.875C23.125 19.5319 21.7819 20.875 20.125 20.875H10.625C8.96815 20.875 7.625 19.5319 7.625 17.875V15.125C7.625 13.4681 8.96815 12.125 10.625 12.125H11.4375C11.9898 12.125 12.4375 12.5727 12.4375 13.125C12.4375 13.6773 11.9898 14.125 11.4375 14.125H10.625ZM2.875 12.125C1.77043 12.125 0.875 13.0204 0.875 14.125V16.625C0.875 17.7296 1.77043 18.625 2.875 18.625H5.25C5.80228 18.625 6.25 18.1773 6.25 17.625C6.25 17.0727 5.80228 16.625 5.25 16.625H2.875V14.125H3.5625C4.11478 14.125 4.5625 13.6773 4.5625 13.125C4.5625 12.5727 4.11478 12.125 3.5625 12.125H2.875Z" fill="black"/>
</svg>
