<svg width="24" height="24" viewBox="0 0 24 24" fill="none" xmlns="http://www.w3.org/2000/svg">
<path fill-rule="evenodd" clip-rule="evenodd" d="M4 3C2.89543 3 2 3.89543 2 5V7H4V10H2V14H4V17H2V19C2 20.1046 2.89543 21 4 21H20C21.1046 21 22 20.1046 22 19V5C22 3.89543 21.1046 3 20 3H4ZM12.6751 8.55382C13.2706 8.20193 13.9653 8 14.7071 8C15.4489 8 16.1436 8.20193 16.7391 8.55383L18 7.29291L19.4142 8.70712L18.1533 9.96805C18.5052 10.5636 18.7071 11.2582 18.7071 12C18.7071 12.7418 18.5052 13.4365 18.1533 14.032L19.4142 15.2929L18 16.7071L16.7391 15.4462C16.1435 15.7981 15.4489 16 14.7071 16C13.9653 16 13.2707 15.7981 12.6751 15.4462L11.4142 16.7071L10 15.2929L11.2609 14.032C10.909 13.4365 10.7071 12.7418 10.7071 12C10.7071 11.2582 10.909 10.5635 11.2609 9.96803L10 8.70712L11.4142 7.29291L12.6751 8.55382ZM16.7071 12C16.7071 13.1046 15.8117 14 14.7071 14C13.6025 14 12.7071 13.1046 12.7071 12C12.7071 10.8954 13.6025 10 14.7071 10C15.8117 10 16.7071 10.8954 16.7071 12Z" fill="black"/>
</svg>
