<svg width="24" height="24" viewBox="0 0 24 24" fill="none" xmlns="http://www.w3.org/2000/svg">
<path fill-rule="evenodd" clip-rule="evenodd" d="M17.0113 5.59161L18.8575 2.51453L17.1425 1.48553L15.2319 4.66999L14.1877 6.41026L12.5981 9.05962L9.68729 13.9109L8.01799 16.6931L6.98882 18.4084L5.14253 21.4855L6.85752 22.5145L8.76823 19.33L9.81239 17.5898L11.402 14.9404L14.3128 10.0891L15.9821 7.3069L17.0113 5.59161ZM12 20C11.2158 20 10.4574 19.8781 9.73197 19.6674L10.8074 17.875C11.2007 17.9562 11.5989 18 12 18C14.3581 18 16.6141 16.4849 18.3759 14.7811C19.237 13.9484 19.9372 13.1122 20.4223 12.4831C20.5614 12.3026 20.6824 12.1399 20.7838 12C20.6824 11.8601 20.5614 11.6974 20.4223 11.5169C19.9372 10.8878 19.237 10.0516 18.3759 9.21885C17.8882 8.74715 17.3625 8.2899 16.8073 7.87527L17.8408 6.15266C18.5558 6.67227 19.2019 7.23542 19.7663 7.78115C20.7148 8.69844 21.4792 9.61225 22.0061 10.2956C22.2702 10.6381 22.4763 10.9248 22.6177 11.128C22.6884 11.2296 22.743 11.3105 22.7808 11.3671C22.7996 11.3955 22.8143 11.4178 22.8246 11.4336L22.8368 11.4524L22.8405 11.4581L22.8421 11.4606L22 12C22.8425 12.5388 22.8418 12.5398 22.8417 12.5401L22.8405 12.5419L22.8368 12.5476L22.8246 12.5664C22.8143 12.5822 22.7996 12.6045 22.7808 12.6329C22.743 12.6895 22.6884 12.7704 22.6177 12.872C22.4763 13.0752 22.2702 13.3619 22.0061 13.7044C21.4792 14.3878 20.7148 15.3016 19.7663 16.2189C17.9088 18.0151 15.1648 20 12 20ZM22 12L22.8425 12.5388L23.1871 12L22.8421 11.4606C22.8423 11.4609 22.8425 11.4612 22 12ZM15 12C15 13.464 13.9514 14.6831 12.5642 14.947L14.866 11.1107C14.9531 11.3917 15 11.6904 15 12ZM12 6C12.4012 6 12.7994 6.04385 13.1927 6.12501L14.2681 4.33257C13.5427 4.12188 12.7843 4 12 4C8.83522 4 6.09125 5.98492 4.23381 7.78115C3.28525 8.69844 2.52091 9.61225 1.99397 10.2956C1.72987 10.6381 1.52379 10.9248 1.38241 11.128C1.31168 11.2296 1.25704 11.3105 1.21932 11.3671C1.20045 11.3955 1.18581 11.4178 1.17549 11.4336L1.16327 11.4524L1.15961 11.4581L1.1584 11.4599C1.15822 11.4602 1.15761 11.4612 2.00003 12L1.15761 11.4612L0.812988 12L1.15761 12.5388L1.15961 12.5419L1.16327 12.5476L1.17549 12.5664C1.18581 12.5822 1.20045 12.6045 1.21932 12.6329C1.25704 12.6895 1.31168 12.7704 1.38241 12.872C1.52379 13.0752 1.72987 13.3619 1.99397 13.7044C2.52091 14.3878 3.28525 15.3016 4.23381 16.2189C4.79814 16.7646 5.44431 17.3277 6.15926 17.8474L7.19282 16.1247C6.63759 15.7101 6.11192 15.2529 5.62413 14.7811C4.76304 13.9484 4.06291 13.1122 3.5778 12.4831C3.43863 12.3026 3.31769 12.1399 3.21626 12C3.31769 11.8601 3.43863 11.6974 3.5778 11.5169C4.06291 10.8878 4.76304 10.0516 5.62413 9.21885C7.38597 7.51508 9.642 6 12 6ZM2.00003 12C1.15761 12.5388 1.15743 12.5385 1.15761 12.5388L2.00003 12ZM9.00003 12C9.00003 10.536 10.0487 9.3169 11.4359 9.05296L9.13405 12.8894C9.04694 12.6083 9.00003 12.3097 9.00003 12Z" fill="black"/>
</svg>
