<svg width="24" height="24" viewBox="0 0 24 24" fill="none" xmlns="http://www.w3.org/2000/svg">
<path fill-rule="evenodd" clip-rule="evenodd" d="M4 2C2.89543 2 2 2.89543 2 4V9C2 10.1046 2.89543 11 4 11H9C10.1046 11 11 10.1046 11 9V4C11 2.89543 10.1046 2 9 2H4ZM9.70711 5.70711C10.0976 5.31658 10.0976 4.68342 9.70711 4.29289C9.31658 3.90237 8.68342 3.90237 8.29289 4.29289L6 6.58579L4.70711 5.29289C4.31658 4.90237 3.68342 4.90237 3.29289 5.29289C2.90237 5.68342 2.90237 6.31658 3.29289 6.70711L5.29289 8.70711C5.68342 9.09763 6.31658 9.09763 6.70711 8.70711L9.70711 5.70711Z" fill="black"/>
<path d="M13 4C13 3.44772 13.4477 3 14 3H21C21.5523 3 22 3.44772 22 4C22 4.55228 21.5523 5 21 5H14C13.4477 5 13 4.55228 13 4Z" fill="black"/>
<path d="M14 6C13.4477 6 13 6.44772 13 7C13 7.55228 13.4477 8 14 8H18C18.5523 8 19 7.55228 19 7C19 6.44772 18.5523 6 18 6H14Z" fill="black"/>
<path d="M14 17C13.4477 17 13 17.4477 13 18C13 18.5523 13.4477 19 14 19H18C18.5523 19 19 18.5523 19 18C19 17.4477 18.5523 17 18 17H14Z" fill="black"/>
<path d="M14 14C13.4477 14 13 14.4477 13 15C13 15.5523 13.4477 16 14 16H21C21.5523 16 22 15.5523 22 15C22 14.4477 21.5523 14 21 14H14Z" fill="black"/>
<path fill-rule="evenodd" clip-rule="evenodd" d="M2 15C2 13.8954 2.89543 13 4 13H9C10.1046 13 11 13.8954 11 15V20C11 21.1046 10.1046 22 9 22H4C2.89543 22 2 21.1046 2 20V15ZM5.70711 15.2929C5.31658 14.9024 4.68342 14.9024 4.29289 15.2929C3.90237 15.6834 3.90237 16.3166 4.29289 16.7071L5.08579 17.5L4.29289 18.2929C3.90237 18.6834 3.90237 19.3166 4.29289 19.7071C4.68342 20.0976 5.31658 20.0976 5.70711 19.7071L6.5 18.9142L7.29289 19.7071C7.68342 20.0976 8.31658 20.0976 8.70711 19.7071C9.09763 19.3166 9.09763 18.6834 8.70711 18.2929L7.91421 17.5L8.70711 16.7071C9.09763 16.3166 9.09763 15.6834 8.70711 15.2929C8.31658 14.9024 7.68342 14.9024 7.29289 15.2929L6.5 16.0858L5.70711 15.2929Z" fill="black"/>
</svg>
