<svg width="24" height="24" viewBox="0 0 24 24" fill="none" xmlns="http://www.w3.org/2000/svg">
<path d="M3 5C3 4.44772 3.44772 4 4 4H20C20.5523 4 21 4.44772 21 5V6.58579C21 7.47669 19.9229 7.92286 19.2929 7.29289C19.1054 7.10536 18.851 7 18.5858 7H5.41421C5.149 7 4.89464 7.10536 4.70711 7.29289C4.07714 7.92286 3 7.47669 3 6.58579V5Z" fill="black"/>
<path d="M10 5C10 4.44772 10.4477 4 11 4H13C13.5523 4 14 4.44772 14 5V19C14 19.5523 13.5523 20 13 20H11C10.4477 20 10 19.5523 10 19V5Z" fill="black"/>
</svg>
