<svg width="25" height="24" viewBox="0 0 25 24" fill="none" xmlns="http://www.w3.org/2000/svg">
<path d="M21.0024 7H15.0024C14.4494 7 14.0024 7.447 14.0024 8V11H12.0024V4C12.0024 3.447 11.5554 3 11.0024 3H3.00244C2.44944 3 2.00244 3.447 2.00244 4V20C2.00244 20.553 2.44944 21 3.00244 21H10.0024H11.0024H15.0024H16.0024H21.0024C21.5554 21 22.0024 20.553 22.0024 20V8C22.0024 7.447 21.5554 7 21.0024 7ZM8.00244 6H10.0024V8H8.00244V6ZM6.00244 16H4.00244V14H6.00244V16ZM6.00244 12H4.00244V10H6.00244V12ZM6.00244 8H4.00244V6H6.00244V8ZM10.0024 16H8.00244V14H10.0024V16ZM10.0024 12H8.00244V10H10.0024V11V12ZM19.0024 16H17.0024V14H19.0024V16ZM19.0024 12H17.0024V10H19.0024V12Z" fill="black"/>
</svg>
