<svg width="24" height="24" viewBox="0 0 24 24" fill="none" xmlns="http://www.w3.org/2000/svg">
<path d="M10.4806 3C10.1768 3 9.88953 3.13809 9.69976 3.3753L6.30024 7.62469C6.11047 7.86191 5.82316 8 5.51938 8H2C1.44772 8 1 8.44772 1 9V15C1 15.5523 1.44772 16 2 16H5.51938C5.82316 16 6.11047 16.1381 6.30024 16.3753L9.69976 20.6247C9.88953 20.8619 10.1768 21 10.4806 21H14V3H10.4806Z" fill="black"/>
<path d="M23 12C23 16.0796 19.9463 19.446 16 19.9381V17.917C18.8377 17.441 21 14.973 21 12C21 9.027 18.8377 6.55903 16 6.08295V4.06189C19.9463 4.55399 23 7.92038 23 12Z" fill="black"/>
<path d="M19 12C19 13.8638 17.7252 15.4299 16 15.874V13.7324C16.5978 13.3866 17 12.7403 17 12C17 11.2597 16.5978 10.6134 16 10.2676V8.12601C17.7252 8.57006 19 10.1362 19 12Z" fill="black"/>
</svg>
