<svg width="24" height="24" viewBox="0 0 24 24" fill="none" xmlns="http://www.w3.org/2000/svg">
<path d="M18.9911 2H9.01012C7.89912 2 7.00012 2.899 7.00012 4.01V9.647L2.29812 14.289C2.00912 14.574 1.92112 15.006 2.07512 15.381C2.22912 15.755 2.59512 16 3.00012 16V17.13V21C3.00012 21.553 3.44712 22 4.00012 22H11.9221H20.0001C20.5531 22 21.0001 21.553 21.0001 21V4.009C21.0001 2.899 20.1021 2 18.9911 2ZM10.9221 15.111V18.138V20H5.00012V17.13V15V14.432L7.98712 11.483L10.9221 14.486V15.111ZM13.0001 9H11.0001V7H13.0001V9ZM17.0001 17H15.0001V15H17.0001V17ZM17.0001 13H15.0001V11H17.0001V13ZM17.0001 9H15.0001V7H17.0001V9Z" fill="black"/>
<path d="M7 15H9V17H7V15Z" fill="black"/>
</svg>
