<svg width="25" height="24" viewBox="0 0 25 24" fill="none" xmlns="http://www.w3.org/2000/svg">
<path d="M21.2095 11.278L19.1745 9.24301L17.7595 7.82801L12.7245 2.79301C12.3335 2.40201 11.7015 2.40201 11.3105 2.79301L6.15345 7.94901L4.73845 9.36301C4.17245 9.93001 3.86045 10.684 3.86045 11.485C3.86045 12.287 4.17345 13.041 4.73945 13.606L5.44645 14.313L3.32445 16.435C2.75145 17.008 2.44045 17.766 2.45145 18.543C2.44045 19.43 2.82845 20.272 3.51445 20.851C4.03445 21.29 4.70245 21.532 5.40045 21.532C6.23445 21.532 7.05445 21.191 7.65045 20.595L9.68945 18.556L10.3965 19.262C11.5295 20.395 13.5035 20.396 14.6385 19.263L15.3465 18.556L15.9155 17.987L16.0535 17.849L21.2095 12.692C21.6005 12.302 21.6005 11.669 21.2095 11.278ZM13.9325 17.143L13.2245 17.849C12.8485 18.228 12.1905 18.228 11.8105 17.849L10.3965 16.436C10.0055 16.045 9.37345 16.045 8.98245 16.436L6.23645 19.181C6.01245 19.405 5.70845 19.533 5.40045 19.533C5.24145 19.533 5.00945 19.497 4.80545 19.325C4.57445 19.13 4.44845 18.86 4.45145 18.543C4.44745 18.285 4.55045 18.039 4.73845 17.851L7.56745 15.022C7.95845 14.631 7.95845 13.999 7.56745 13.608L6.15345 12.193C5.96445 12.005 5.86045 11.755 5.86045 11.487C5.86045 11.219 5.96445 10.968 6.15345 10.779L6.86045 10.072L10.3965 13.608L13.9325 17.143Z" fill="black"/>
</svg>
