<svg width="24" height="24" viewBox="0 0 24 24" fill="none" xmlns="http://www.w3.org/2000/svg">
<path fill-rule="evenodd" clip-rule="evenodd" d="M12.8777 17.5C16.2444 17.0667 18.6666 14.0444 18.6666 10.6556V3.38889C18.6666 2.62222 18.0444 2 17.2777 2C16.5111 2 15.8888 2.62222 15.8888 3.38889V10.7778C15.8888 12.6333 14.6333 14.3222 12.8111 14.6889C10.3111 15.2111 8.11106 13.3 8.11106 10.8889V3.38889C8.11106 2.62222 7.48883 2 6.72217 2C5.9555 2 5.33328 2.62222 5.33328 3.38889V10.8889C5.33328 14.8556 8.81106 18.0222 12.8777 17.5ZM4.22217 20.8889C4.22217 21.5 4.72217 22 5.33328 22H18.6666C19.2777 22 19.7777 21.5 19.7777 20.8889C19.7777 20.2778 19.2777 19.7778 18.6666 19.7778H5.33328C4.72217 19.7778 4.22217 20.2778 4.22217 20.8889Z" fill="black"/>
</svg>
