<svg width="24" height="24" viewBox="0 0 24 24" fill="none" xmlns="http://www.w3.org/2000/svg">
<path fill-rule="evenodd" clip-rule="evenodd" d="M10 3.99979C9.44776 3.99979 9.00005 4.4475 9.00005 4.99979C9.00005 5.55207 9.44776 5.99979 10 5.99979H17C17.5523 5.99979 18.0001 6.4475 18.0001 6.99979V16.5856L16.7072 15.2927C16.3166 14.9022 15.6835 14.9022 15.2929 15.2927C14.9024 15.6832 14.9024 16.3164 15.2929 16.7069L18.2929 19.7069C18.6835 20.0974 19.3166 20.0974 19.7072 19.7069L22.7072 16.7069C23.0977 16.3164 23.0977 15.6832 22.7072 15.2927C22.3166 14.9022 21.6835 14.9022 21.2929 15.2927L20.0001 16.5856V6.99979C20.0001 5.34293 18.6569 3.99979 17 3.99979H10ZM5.70711 4.29289C5.31658 3.90237 4.68342 3.90237 4.29289 4.29289L1.29289 7.29289C0.902369 7.68342 0.902369 8.31658 1.29289 8.70711C1.68342 9.09763 2.31658 9.09763 2.70711 8.70711L4 7.41421V17C4 18.6569 5.34315 20 7 20H14C14.5523 20 15 19.5523 15 19C15 18.4477 14.5523 18 14 18H7C6.44772 18 6 17.5523 6 17V7.41421L7.29289 8.70711C7.68342 9.09763 8.31658 9.09763 8.70711 8.70711C9.09763 8.31658 9.09763 7.68342 8.70711 7.29289L5.70711 4.29289Z" fill="black"/>
</svg>
