<svg width="24" height="24" viewBox="0 0 24 24" fill="none" xmlns="http://www.w3.org/2000/svg">
<path d="M4.5 1C3.67157 1 3 1.67157 3 2.5V17C3 19.7614 5.23858 22 8 22H16C18.7614 22 21 19.7614 21 17V5.5C21 4.67157 20.3284 4 19.5 4C18.6716 4 18 4.67157 18 5.5V8.5C18 10.433 16.433 12 14.5 12C13.8473 12 13.2364 11.8214 12.7134 11.5103C12.8983 11.9707 13 12.4735 13 13C13 15.2091 11.2091 17 9 17H8C7.44772 17 7 16.5523 7 16C7 15.4477 7.44772 15 8 15H9C10.1046 15 11 14.1046 11 13C11 11.8954 10.1046 11 9 11H8C7.2889 11 6.61246 11.1484 6 11.416V2.5C6 1.67157 5.32843 1 4.5 1Z" fill="black"/>
<path d="M8 7.5C8 6.67157 8.67157 6 9.5 6C10.3284 6 11 6.67157 11 7.5V8.5C11 9.32843 10.3284 10 9.5 10C8.67157 10 8 9.32843 8 8.5V7.5Z" fill="black"/>
<path d="M13 7.5C13 6.67157 13.6716 6 14.5 6C15.3284 6 16 6.67157 16 7.5V8.5C16 9.32843 15.3284 10 14.5 10C13.6716 10 13 9.32843 13 8.5V7.5Z" fill="black"/>
</svg>
