<svg width="24" height="24" viewBox="0 0 24 24" fill="none" xmlns="http://www.w3.org/2000/svg">
<path fill-rule="evenodd" clip-rule="evenodd" d="M4.00001 4C2.89544 4 2.00001 4.89543 2.00001 6V8.97708C1.99967 8.99202 1.99967 9.00694 2.00001 9.02183V18C2.00001 19.1046 2.89544 20 4.00001 20H20C21.1046 20 22 19.1046 22 18V9.02162C22.0003 9.00687 22.0003 8.99209 22 8.97729V6C22 4.89543 21.1046 4 20 4H4.00001ZM20 8.35013V6L4.00001 6V8.35013L12 11.9057L20 8.35013ZM4.00001 10.5388V18H20V10.5388L12.8123 13.7333C12.2952 13.9631 11.7049 13.9631 11.1877 13.7333L4.00001 10.5388Z" fill="black"/>
</svg>
