<svg width="24" height="24" viewBox="0 0 24 24" fill="none" xmlns="http://www.w3.org/2000/svg">
<path fill-rule="evenodd" clip-rule="evenodd" d="M2 4C2 2.89543 2.89543 2 4 2H20C21.1046 2 22 2.89543 22 4V16C22 17.1046 21.1046 18 20 18H16V20.865C16 21.7128 15.0111 22.176 14.3598 21.6332L10 18H4C2.89543 18 2 17.1046 2 16V4ZM11.5769 5.30741C11.7101 4.89753 12.2899 4.89753 12.4231 5.30741L13.2985 8.00147C13.358 8.18473 13.5289 8.30888 13.7216 8.30888H16.5543C16.9853 8.30888 17.1644 8.8604 16.8157 9.11368L14.524 10.7787C14.3681 10.892 14.3029 11.0928 14.3624 11.276L15.2378 13.9702C15.371 14.38 14.9019 14.7208 14.5532 14.4675L12.2615 12.8025C12.1056 12.6893 11.8944 12.6893 11.7385 12.8025L9.44681 14.4675C9.09815 14.7208 8.62903 14.38 8.7622 13.9702L9.63756 11.276C9.69712 11.0928 9.63187 10.892 9.47595 10.7787L7.18424 9.11368C6.83558 8.8604 7.01477 8.30888 7.44574 8.30888H10.2784C10.4712 8.30888 10.642 8.18473 10.7015 8.00147L11.5769 5.30741Z" fill="black"/>
</svg>
